<?xml version="1.0" encoding="iso-8859-1"?>
<!-- Generator: Adobe Illustrator 28.5.0, SVG Export Plug-In . SVG Version: 9.03 Build 54727)  -->
<svg version="1.1" id="hardkor" xmlns="http://www.w3.org/2000/svg" xmlns:xlink="http://www.w3.org/1999/xlink" x="0px" y="0px"
	 width="64px" height="64px" viewBox="0 0 64 64" enable-background="new 0 0 64 64" xml:space="preserve">
<g>
	<g>
		<path fill="#64438E" d="M45.316,15.609v-1.928h-1.928v-1.928h-3.857V9.824h-3.857V7.896h-9.642v1.928h-3.857v1.928h-3.857v1.928
			h-1.928v1.928h-1.928V55.14h3.857v-1.928h4.821v1.928h4.821v-1.928h5.785v1.928h4.821v-1.928h4.821v1.928h3.857V15.609H45.316z"/>
		<path fill="#EDD3FD" d="M43.388,15.609v-1.928h-3.857v-1.928h-3.857V9.824h-9.642v1.928h-3.857v1.928h-3.857v1.928h-1.928v37.603
			h1.928v-1.928h4.821v1.928h4.821v-1.928h5.785v1.928h4.821v-1.928h4.821v1.928h1.928V15.609H43.388z"/>
		<path fill="#FFFFFF" d="M17.355,49.355h1.928v-0.964h1.928v0.964h1.928v1.928h4.821v-1.928h1.928v-0.964h1.928v0.964h1.928v1.928
			h4.821v-1.928h1.928v-0.964h1.928v0.964h0.964V15.609h-3.857v-1.928h-3.857v-1.928h-4.821v-0.964h-4.821v1.928h-3.857v1.928
			h-3.857v1.928h-0.964V49.355z"/>
	</g>
	<path fill="#F696C6" d="M20.248,32.964v1.928h1.928v-1.928h-0.964H20.248z M40.495,32.964h-0.964v1.928h1.928v-1.928H40.495z"/>
	<g>
		<path fill="#64438E" d="M27.961,32.964h-1.928v1.928h1.928v-0.964V32.964z"/>
		<path fill="#64438E" d="M31.818,34.893h-3.857v1.928h5.785v-1.928h-0.964H31.818z"/>
		<path fill="#64438E" d="M34.71,32.964h-0.964v1.928h1.928v-1.928H34.71z"/>
	</g>
	<g>
		<path opacity="0.25" enable-background="new    " d="M18.319,58.033v0.964h0.964v0.964h23.14v-0.964h0.964v-0.964H18.319z"/>
	</g>
	<g>
		<g>
			<path fill="#64438E" d="M27.961,18.502v-1.928h-0.964v3.857h0.964v-0.964V18.502z"/>
			<path fill="#64438E" d="M27.961,15.609h0.964v0.964h-0.964V15.609z M27.961,20.43h0.964v0.964h-0.964V20.43z"/>
			<path fill="#64438E" d="M28.925,21.394h0.964v0.964h-0.964V21.394z"/>
			<path fill="#64438E" d="M29.89,22.358v0.964h1.928v-0.964h-0.964H29.89z M28.925,14.645h0.964v0.964h-0.964V14.645z
				 M32.782,20.43h0.964v0.964h-0.964V20.43z M32.782,15.609h0.964v0.964h-0.964V15.609z"/>
			<path fill="#64438E" d="M31.818,14.645v-0.964H29.89v0.964h0.964H31.818z M31.818,21.394h0.964v0.964h-0.964V21.394z"/>
			<path fill="#64438E" d="M31.818,14.645h0.964v0.964h-0.964V14.645z M33.746,16.573v3.857h0.964v-3.857H33.746z"/>
		</g>
		<path fill="#C260FF" d="M32.782,18.502h-1.928v3.857h0.964v-0.964h0.964V20.43h0.964v-1.928H32.782z"/>
		<g>
			<path fill="#DEA8FF" d="M28.925,18.502h-0.964v1.928h0.964v0.964h0.964v0.964h0.964v-3.857H29.89H28.925z"/>
			<path fill="#DEA8FF" d="M32.782,16.573v-0.964h-0.964v-0.964h-0.964v3.857h2.893v-1.928H32.782z"/>
		</g>
		<path fill="#EDD3FD" d="M29.89,18.502h0.964v-3.857H29.89v0.964h-0.964v0.964h-0.964v1.928h0.964H29.89z"/>
	</g>
	<g>
		<path fill="#64438E" d="M22.176,29.107v0.964v0.964h0.964h0.964h0.964h0.964v-0.964v-0.964h0.964h0.964v-0.964v-0.964v-0.964
			v-0.964h-0.964h-0.964v-0.964v-0.964h-0.964h-0.964H23.14h-0.964v0.964v0.964h-0.964h-0.964v0.964v0.964v0.964v0.964h0.964H22.176
			z"/>
		<path fill="#64438E" d="M33.746,25.251v0.964v0.964v0.964v0.964h0.964h0.964v0.964v0.964h0.964h0.964h0.964h0.964v-0.964v-0.964
			h0.964h0.964v-0.964v-0.964v-0.964v-0.964h-0.964h-0.964v-0.964v-0.964h-0.964h-0.964h-0.964h-0.964v0.964v0.964H34.71H33.746z"/>
	</g>
	<g>
		<path fill="#009696" d="M47.245,33.928h-2.893v0.964h-0.964v0.964h-0.964v0.964H41.46v0.964h-0.964v0.964h-0.964v0.964h-1.928
			v0.964h-1.928v0.964h-2.893v0.964h-3.857v-0.964h-2.893v-0.964h-1.928v-0.964h-1.928v-0.964h-0.964v-0.964h-0.964v-0.964h-0.964
			v-0.964h-0.964v-0.964h-0.964v-0.964h-2.893v19.284h32.782V33.928z"/>
		<g>
			<path fill="#00FFE1" d="M44.352,34.893v0.964h-0.964v0.964h-0.964v0.964H41.46v0.964h-0.964v0.964h-0.964v0.964h-1.928v0.964
				h-1.928v0.964h-2.893v0.964h-3.857v-0.964h-2.893v-0.964h-1.928v-0.964h-1.928v-0.964h-0.964v-0.964h-0.964v-0.964h-0.964v-0.964
				h-0.964v-0.964h-0.964v-0.964h-1.928v17.355h30.854V34.893H44.352z M34.71,51.284h-1.928v-0.964h-0.964v0.964H29.89v-0.964
				h-0.964v0.964h-1.928v-4.821h0.964v-0.964h0.964v-0.964h3.857v0.964h0.964v0.964h0.964V51.284z"/>
			<path fill="#00FFE1" d="M33.746,46.463h-0.964v-0.964h-3.857v0.964h-0.964v3.857h0.964v-0.964h0.964v0.964h1.928v-0.964h0.964
				v0.964h0.964V46.463z M31.336,49.355h-0.964v-2.893h0.964V49.355z"/>
		</g>
		<path fill="#323232" d="M47.245,33.928h-2.893v0.964h-0.964v0.964H41.46v0.964h-1.928v0.964h-1.928v0.964h-1.928v14.463h11.57
			V33.928z M14.463,53.212h11.57V38.749h-1.928v-0.964h-1.928v-0.964h-1.928v-0.964h-1.928v-0.964h-0.964v-0.964h-2.893V53.212z"/>
		<path d="M44.352,34.893v0.964h-0.964v0.964H41.46v0.964h0.964v0.964h0.964v0.964h-0.964v0.964H41.46v0.964h-0.964v0.964h-0.964
			v0.964h-0.964v0.964h-0.964v0.964h-0.964v6.749h9.642V34.893H44.352z M44.352,48.391h-3.857v-0.964h3.857V48.391z"/>
		<path d="M38.567,43.57v-0.964h0.964v-0.964h0.964v-0.964h0.964v-0.964h0.964v-0.964H41.46v-0.964h-1.928v0.964h-1.928v0.964
			h-0.964v4.821h0.964V43.57H38.567z M24.104,38.749h-1.928v-0.964h-1.928v0.964h-0.964v0.964h0.964v0.964h0.964v0.964h0.964v0.964
			h0.964v0.964h0.964v0.964h0.964v-4.821h-0.964V38.749z"/>
		<path d="M23.14,43.57h-0.964v-0.964h-0.964v-0.964h-0.964v-0.964h-0.964v-0.964h-0.964v-0.964h0.964v-0.964h0.964v-0.964h-1.928
			v-0.964h-0.964v-0.964h-1.928v17.355h9.642v-6.749h-0.964v-0.964H23.14V43.57z M21.212,48.391h-3.857v-0.964h3.857V48.391z"/>
	</g>
	<g>
		<g>
			<path fill="#64438E" d="M53.994,38.749v-0.964h-1.928v-0.964h-1.928v-0.964h-0.964v-0.964h-0.964v-0.964h-0.964v7.713h0.964
				v0.964h1.928v0.964h3.857v-0.964h0.964v-3.857H53.994z"/>
		</g>
		<g>
			<path fill="#EDD3FD" d="M52.066,38.749v-0.964h-1.928v-0.964h-0.964v-0.964h-0.964v-0.964h-0.964v5.785h0.964v0.964h1.928v0.964
				h3.857v-3.857H52.066z"/>
		</g>
		<path fill="#FFFFFF" d="M52.066,38.749v-0.964h-1.928v-0.964h-0.964v-0.964h-0.964v-0.964h-0.964v4.821h0.964v0.964h1.928v0.964
			h3.857v-2.893H52.066z"/>
		<g>
			<path fill="#64438E" d="M7.713,38.749v-0.964h1.928v-0.964h1.928v-0.964h0.964v-0.964h0.964v-0.964h0.964v7.713h-0.964v0.964
				H11.57v0.964H7.713v-0.964H6.749v-3.857H7.713z"/>
		</g>
		<g>
			<path fill="#EDD3FD" d="M9.642,38.749v-0.964h1.928v-0.964h0.964v-0.964h0.964v-0.964h0.964v5.785h-0.964v0.964H11.57v0.964
				H7.713v-3.857H9.642z"/>
		</g>
		<path fill="#FFFFFF" d="M7.713,38.749v2.893h3.857v-0.964h1.928v-0.964h0.964v-4.821h-0.964v0.964h-0.964v0.964H11.57v0.964H9.642
			v0.964H7.713z"/>
	</g>
	<g>
		<path d="M47.245,9.824h-1.928v1.928h1.928V9.824z M14.463,9.824v1.928h1.928V9.824H14.463z"/>
		<path d="M16.391,7.896v1.928h1.928V7.896H16.391z"/>
		<path d="M18.319,5.967v1.928h3.857V5.967H18.319z M45.316,7.896h-1.928v1.928h1.928V7.896z"/>
		<path d="M43.388,5.967h-3.857v1.928h3.857V5.967z"/>
		<path d="M39.531,4.039H22.176v1.928h17.355V4.039z M12.534,11.752v8.678h-1.928v9.642h1.928V32h1.928V11.752H12.534z
			 M49.173,20.43v-8.678h-1.928V32h1.928v-1.928h1.928V20.43H49.173z"/>
		<path fill="#323232" d="M49.173,22.358v-3.857h-1.928V32h1.928v-3.857h1.928v-5.785H49.173z"/>
		<path fill="#828282" d="M47.245,20.43v9.642h1.928V20.43H47.245z"/>
		<path fill="#AFAFAF" d="M47.245,22.358v5.785h1.928v-5.785H47.245z"/>
		<path fill="#323232" d="M12.534,22.358v-3.857h1.928V32h-1.928v-3.857h-1.928v-5.785H12.534z"/>
		<path fill="#828282" d="M14.463,20.43v9.642h-1.928V20.43H14.463z"/>
		<path fill="#AFAFAF" d="M14.463,22.358v5.785h-1.928v-5.785H14.463z"/>
	</g>
	<g>
		<path d="M20.248,31.036h0.964V32h-0.964V31.036z"/>
		<path d="M19.284,30.072h0.964v0.964h-0.964V30.072z"/>
		<path d="M19.284,28.143v-3.857h-0.964v1.928h-1.928v0.964h1.928v2.893h0.964V28.143z"/>
		<path d="M19.284,23.322h0.964v0.964h-0.964V23.322z M14.463,25.251v0.964h1.928v-0.964H14.463z M23.14,32h-1.928v0.964h3.857V32
			H23.14z"/>
		<path d="M25.069,31.036V32h1.928v-0.964H25.069z"/>
		<path d="M26.997,30.072h0.964v0.964h-0.964V30.072z"/>
		<path d="M27.961,29.107h0.964v0.964h-0.964V29.107z M27.961,23.322h0.964v0.964h-0.964V23.322z"/>
		<path d="M22.176,23.322h5.785v-0.964h-7.713v0.964H22.176z M40.495,31.036h0.964V32h-0.964V31.036z"/>
		<path d="M41.46,30.072h0.964v0.964H41.46V30.072z M41.46,23.322h0.964v0.964H41.46V23.322z"/>
		<path d="M43.388,26.215v-1.928h-0.964v5.785h0.964v-2.893h1.928v-0.964H43.388z"/>
		<path d="M45.316,25.251v0.964h1.928v-0.964H45.316z M38.567,32h-1.928v0.964h3.857V32H38.567z"/>
		<path d="M35.675,31.036H34.71V32h1.928v-0.964H35.675z"/>
		<path d="M33.746,30.072h0.964v0.964h-0.964V30.072z"/>
		<path d="M32.782,29.107h0.964v0.964h-0.964V29.107z"/>
		<path d="M32.782,27.179v-2.893h-0.964v1.928H29.89v-1.928h-0.964v4.821h0.964v-1.928h1.928v1.928h0.964V27.179z"/>
		<path d="M32.782,23.322h0.964v0.964h-0.964V23.322z"/>
		<path d="M35.675,23.322h5.785v-0.964h-7.713v0.964H35.675z"/>
		<path opacity="0.75" fill="#A000DC" enable-background="new    " d="M27.961,23.322h-7.713v0.964h-0.964v5.785h0.964v0.964h0.964
			V32h3.857v-0.964h1.928v-0.964h0.964v-0.964h0.964v-4.821h-0.964V23.322z M41.46,24.287v-0.964h-7.713v0.964h-0.964v4.821h0.964
			v0.964h0.964v0.964h1.928V32h3.857v-0.964h0.964v-0.964h0.964v-5.785H41.46z"/>
		<g>
			<path fill="#D778F5" d="M25.069,23.322h0.964v0.964h-0.964V23.322z M22.176,23.322h0.964v0.964h-0.964V23.322z"/>
			<path fill="#D778F5" d="M24.104,24.287h0.964v0.964h-0.964V24.287z M21.212,24.287h0.964v0.964h-0.964V24.287z"/>
			<path fill="#D778F5" d="M23.14,25.251h0.964v0.964H23.14V25.251z M20.248,25.251h0.964v0.964h-0.964V25.251z"/>
			<path fill="#D778F5" d="M22.176,26.215h0.964v0.964h-0.964V26.215z"/>
			<path fill="#D778F5" d="M21.212,27.179h0.964v0.964h-0.964V27.179z"/>
			<path fill="#D778F5" d="M20.248,28.143h0.964v0.964h-0.964V28.143z M19.284,26.215h0.964v0.964h-0.964V26.215z M35.675,23.322
				h0.964v0.964h-0.964V23.322z M38.567,23.322h0.964v0.964h-0.964V23.322z"/>
			<path fill="#D778F5" d="M34.71,24.287h0.964v0.964H34.71V24.287z M37.603,24.287h0.964v0.964h-0.964V24.287z"/>
			<path fill="#D778F5" d="M33.746,25.251h0.964v0.964h-0.964V25.251z M36.639,25.251h0.964v0.964h-0.964V25.251z"/>
			<path fill="#D778F5" d="M35.675,26.215h0.964v0.964h-0.964V26.215z"/>
			<path fill="#D778F5" d="M34.71,27.179h0.964v0.964H34.71V27.179z"/>
			<path fill="#D778F5" d="M33.746,28.143h0.964v0.964h-0.964V28.143z M32.782,26.215h0.964v0.964h-0.964V26.215z"/>
		</g>
	</g>
	<g>
		<path d="M14.463,32h0.964v-0.964h0.964v-8.678h28.925v8.678h0.964V32h0.964v0.964h2.893v-5.785h-0.964V20.43h-0.964v-5.785h-0.964
			v-3.857h-1.928V8.86h-1.928V6.931H41.46V5.967h-3.857V5.003h-3.857V4.039h-5.785v0.964h-3.857v0.964h-3.857v0.964h-1.928V8.86
			h-1.928v1.928h-1.928v3.857h-0.964v5.785h-0.964v6.749H11.57v5.785h2.893V32L14.463,32z"/>
		<g>
			<path fill="#232323" d="M16.391,21.394v0.964h28.925v-0.964H16.391z"/>
			<path fill="#232323" d="M15.427,30.072h-0.964V32h0.964v-0.964h0.964v-8.678h-0.964V30.072z"/>
			<path fill="#232323" d="M13.498,32h-0.964v0.964h1.928v-1.928h-0.964V32z M48.209,32v-0.964h-0.964v-0.964h-0.964v-7.713h-0.964
				v8.678h0.964V32h0.964v0.964h1.928V32H48.209z"/>
		</g>
		<g>
			<path fill="#646464" d="M16.391,20.43v0.964h28.925V20.43H16.391z"/>
			<path fill="#646464" d="M45.316,21.394h0.964v0.964h-0.964V21.394z M15.427,21.394h0.964v0.964h-0.964V21.394z"/>
			<path fill="#646464" d="M14.463,30.072h0.964v-7.713h-0.964V30.072z M47.245,30.072v-7.713h-0.964v7.713H47.245v0.964h0.964
				v-0.964H47.245z"/>
			<path fill="#646464" d="M13.498,30.072h0.964v0.964h-0.964V30.072z M48.209,31.036h0.964V32h-0.964V31.036z"/>
			<path fill="#646464" d="M12.534,31.036h0.964V32h-0.964V31.036z M49.173,32h0.964v0.964h-0.964V32z"/>
			<path fill="#646464" d="M11.57,32h0.964v0.964H11.57V32z"/>
		</g>
		<path fill="#A000DC" d="M36.157,6.931v0.964h-0.964V8.86h-0.964v0.964h-0.964v0.964H32.3v0.964h-0.964v0.964h2.893v0.964h-0.964
			v0.964H32.3v0.964h-0.964v0.964h-0.964v-0.964h-0.964v-0.964h-0.964v-0.964h-0.964v-0.964h2.893v-0.964h-0.964v-0.964h-0.964
			V9.824h-0.964V8.86h-0.964V7.896h-0.964V6.931h-3.857v0.964h0.964V8.86h0.964v0.964h0.964v0.964h0.964v0.964h-2.893v0.964h0.964
			v0.964h0.964v0.964h0.964v0.964h0.964v0.964h0.964v0.964h0.964v0.964h0.964v0.964H32.3v-0.964h0.964v-0.964h0.964v-0.964h0.964
			v-0.964h0.964v-0.964h0.964v-0.964h0.964v-0.964h0.964v-0.964h-2.893v-0.964h0.964V9.824h0.964V8.86h0.964V7.896h0.964V6.931
			H36.157z"/>
		<path fill="#C02DF0" d="M36.157,6.931v0.964h-0.964V8.86h-0.964v0.964h-0.964v0.964H32.3v0.964h-0.964v0.964h2.893v0.964h-0.964
			v0.964H32.3v0.964h-0.964v0.964h-0.964v-0.964h-0.964v-0.964h-0.964v-0.964h-0.964v-0.964h2.893v-0.964h-0.964v-0.964h-0.964
			V9.824h-0.964V8.86h-0.964V7.896h-0.964V6.931h-2.893v0.964h0.964V8.86h0.964v0.964h0.964v0.964h0.964v0.964h-2.893v0.964h0.964
			v0.964h0.964v0.964h0.964v0.964h0.964v0.964h0.964v0.964h0.964v0.964h0.964v0.964h0.964v-0.964H32.3v-0.964h0.964v-0.964h0.964
			v-0.964h0.964v-0.964h0.964v-0.964h0.964v-0.964h0.964v-0.964h-2.893v-0.964h0.964V9.824h0.964V8.86h0.964V7.896h0.964V6.931
			H36.157z"/>
		<g>
			<path fill="#D778F5" d="M30.372,16.573h0.964v0.964h-0.964V16.573z"/>
			<path fill="#D778F5" d="M29.407,15.609h0.964v0.964h-0.964V15.609z"/>
			<path fill="#D778F5" d="M28.443,14.645h0.964v0.964h-0.964V14.645z"/>
			<path fill="#D778F5" d="M27.479,13.681h0.964v0.964h-0.964V13.681z M24.587,6.931h0.964v0.964h-0.964V6.931z"/>
			<path fill="#D778F5" d="M25.551,7.896h0.964V8.86h-0.964V7.896z"/>
			<path fill="#D778F5" d="M26.515,8.86h0.964v0.964h-0.964V8.86z"/>
			<path fill="#D778F5" d="M27.479,9.824h0.964v0.964h-0.964V9.824z"/>
			<path fill="#D778F5" d="M28.443,10.788h0.964v0.964h-0.964V10.788z M26.515,12.716h0.964v0.964h-0.964V12.716z"/>
			<path fill="#D778F5" d="M29.407,11.752h0.964v0.964h-0.964V11.752z M31.336,15.609H32.3v0.964h-0.964V15.609z"/>
			<path fill="#D778F5" d="M32.3,14.645h0.964v0.964H32.3V14.645z"/>
			<path fill="#D778F5" d="M33.264,13.681h0.964v0.964h-0.964V13.681z M36.157,6.931h0.964v0.964h-0.964V6.931z"/>
			<path fill="#D778F5" d="M35.192,7.896h0.964V8.86h-0.964V7.896z"/>
			<path fill="#D778F5" d="M34.228,8.86h0.964v0.964h-0.964V8.86z"/>
			<path fill="#D778F5" d="M33.264,9.824h0.964v0.964h-0.964V9.824z"/>
			<path fill="#D778F5" d="M32.3,10.788h0.964v0.964H32.3V10.788z M34.228,12.716h0.964v0.964h-0.964V12.716z"/>
			<path fill="#D778F5" d="M31.336,11.752H32.3v0.964h-0.964V11.752z"/>
		</g>
	</g>
	<g>
		<g display="none">
			<path display="inline" fill="#323232" d="M46.955,41.642v-7.713h1.253v-0.964h1.928v6.749h-0.964v0.964h-0.964v0.964H46.955z"/>
			<path display="inline" d="M47.245,40.678v-5.785h0.964v-0.964h0.964v5.785h-0.964v0.964H47.245z"/>
		</g>
		<g>
			<path fill="#323232" d="M48.209,33.928v0.964h0.964v0.964h0.964v6.749h-1.928v-0.964h-1.253v-7.713H48.209z"/>
			<path d="M48.209,34.893v0.964h0.964v5.785h-0.964v-0.964h-0.964v-5.785H48.209z"/>
		</g>
		<g display="none">
			<path display="inline" fill="#323232" d="M13.498,41.642v-0.964h-0.964v-0.964H11.57v-6.749h1.928v0.964h1.253v7.713H13.498z"/>
			<path display="inline" d="M13.498,40.678v-0.964h-0.964v-5.785h0.964v0.964h0.964v5.785H13.498z"/>
		</g>
		<g>
			<path fill="#323232" d="M13.498,33.928v0.964h-0.964v0.964H11.57v6.749h1.928v-0.964h1.253v-7.713H13.498z"/>
			<path d="M13.498,34.893v0.964h-0.964v5.785h0.964v-0.964h0.964v-5.785H13.498z"/>
		</g>
	</g>
	<g>
		<path d="M14.463,38.749v-0.964h-0.964v-0.964h-0.964v-0.964h-1.928v0.964H9.642v0.964H5.785v-0.964H4.821v-0.964H2.893v0.964
			H1.928v0.964H0.964v0.964H0v2.893h0.964v5.785h0.964v0.964h2.893v-0.964h0.964v-2.893h0.964V43.57h1.928v0.964h0.964v2.893h0.964
			v0.964h2.893v-0.964h0.964v-5.785h0.964v-2.893H14.463z"/>
		<path fill="#4B4B4B" d="M6.749,38.749h1.928v0.964H6.749V38.749z M10.606,46.463h2.893v0.964h-2.893V46.463z M1.928,46.463h2.893
			v0.964H1.928V46.463z"/>
		<path fill="#969696" d="M13.498,38.749v-0.964h-0.964v-0.964h-1.928v0.964H9.642v1.928H8.678v0.964H6.749v-0.964H5.785v-1.928
			H4.821v-0.964H2.893v0.964H1.928v0.964H0.964v2.893h0.964v3.857h2.893v-0.964h0.964V43.57H4.821v-1.928h1.928v0.964h1.928v-0.964
			h1.928v1.928H9.642v0.964h0.964v0.964h2.893v-3.857h0.964v-2.893H13.498z M12.534,40.678H11.57v-0.964h0.964V40.678z"/>
		<path fill="#FF14FF" d="M5.785,42.606h0.964v0.964H5.785V42.606z M8.678,42.606h0.964v0.964H8.678V42.606z M10.606,39.713h0.964
			v0.964h-0.964V39.713z M12.534,39.713h0.964v0.964h-0.964V39.713z"/>
		<path fill="#00FFE1" d="M11.57,38.749h0.964v0.964H11.57V38.749z M11.57,40.678h0.964v0.964H11.57V40.678z M2.893,39.713h0.964
			v0.964H2.893V39.713z"/>
		<path d="M11.57,39.713h0.964v0.964H11.57V39.713z"/>
		<path d="M12.534,38.749h0.964v0.964h-0.964V38.749z M12.534,40.678h0.964v0.964h-0.964V40.678z M10.606,40.678h0.964v0.964h-0.964
			V40.678z M10.606,38.749h0.964v0.964h-0.964V38.749z M2.893,38.749h0.964v0.964H2.893V38.749z"/>
		<path d="M1.928,39.713h0.964v0.964H1.928V39.713z M3.857,39.713h0.964v0.964H3.857V39.713z"/>
		<path d="M2.893,40.678h0.964v0.964H2.893V40.678z"/>
	</g>
	<g>
		<path fill="#64438E" d="M63.298,31.737v-0.702H45.054v0.702h-0.702v10.879h0.702v3.507h0.702v0.702v0.702h0.702v0.702h0.702v0.702
			h0.702v0.704h0.702v0.702h0.702v0.702h0.702v0.702h0.702v0.702h0.704h6.316v-0.702h0.702v-0.702h0.702v-0.702h0.702v-0.702h0.702
			V48.93h0.702v-0.702h0.702v-0.702h0.702v-1.403h0.702v-3.507H64V31.738L63.298,31.737L63.298,31.737z"/>
		<path fill="#ECCDFF" d="M61.545,33.143h-1.056h-0.702H46.452v9.484h0.704v3.5h0.704v1.408h0.704v0.704h0.699v0.704h0.704v0.704
			h0.704v0.704h3.52h2.816h0.704v-0.719h0.704v-0.704h0.704v-0.704h0.704V47.52h0.704v-1.408h0.704v-3.5h0.704v-9.469H61.545z
			 M60.491,33.492h0.352v0.352h-0.352V33.492z M54.528,49.634h-0.704v-0.352h0.704V49.634z M54.528,48.93h-1.76v-0.352h1.76h0.352
			h0.704v0.352h-0.704H54.528z M55.229,47.879h1.408v0.352h-1.76h-0.352h-2.813v-0.352h2.464h0.704H55.229z M57.333,47.527H54.87
			h-0.694h-3.52v-0.352h7.039v0.352H57.333z M56.982,40.862v1.056H56.63V40.51h0.352V40.862z M56.28,41.211v0.352h-0.352v-0.704
			h0.352V41.211z M51.719,40.862v1.056h-0.352V40.51h0.352V40.862z M54.528,39.459h-0.704v-0.352h0.704V39.459z M55.229,38.755
			H53.12v-0.352h2.112v0.352L55.229,38.755L55.229,38.755z M54.877,38.053h-1.405v-0.352h1.408v0.352H54.877z M52.071,41.563v-0.704
			h0.352v0.704H52.071z M53.824,43.318v-0.352h0.704v0.704h-0.704V43.318z M52.773,44.369V44.02h0.704v0.704h-0.704V44.369z
			 M53.824,44.369V44.02h0.704v0.704h-0.704V44.369z M54.877,44.369V44.02h0.704v0.704h-0.704V44.369z M51.719,45.423v-0.352h0.704
			v0.704h-0.704V45.423z M52.773,45.423v-0.352h0.704v0.704h-0.704V45.423z M53.824,45.423v-0.352h0.704v0.704h-0.704V45.423z
			 M54.877,45.423v-0.352h0.704v0.704h-0.704V45.423z M55.931,45.423v-0.352h0.704v0.704h-0.704V45.423z M50.666,46.476v-0.352
			h0.704v0.704h-0.704V46.476z M51.719,46.476v-0.352h0.704v0.704h-0.704V46.476z M52.773,46.476v-0.352h0.704v0.704h-0.704V46.476z
			 M53.824,46.476v-0.352h0.704v0.704h-0.704V46.476z M54.877,46.476v-0.352h0.704v0.704h-0.704V46.476z M55.931,46.476v-0.352
			h0.704v0.704h-0.704V46.476z M56.982,46.476v-0.352h0.704v0.704h-0.704V46.476z M60.14,33.492v0.352h-0.352v-0.352H60.14z
			 M59.438,33.492v0.352h-0.349v-0.352H59.438z M58.736,33.492v0.352h-0.352v-0.352H58.736z M58.035,33.492v0.352h-0.352v-0.352
			H58.035z M57.333,33.492v0.352h-0.352v-0.352H57.333z M56.632,33.492v0.352H56.28v-0.352H56.632z M55.931,33.492v0.352h-0.352
			v-0.352H55.931z M55.229,33.492v0.352h-0.352v-0.352H55.229z M52.773,33.492v0.352h-0.352v-0.352H52.773z M52.071,33.492v0.352
			h-0.352v-0.352H52.071z M51.37,33.492v0.352h-0.352v-0.352H51.37z M50.666,33.492v0.352h-0.352v-0.352H50.666z M49.964,33.492
			v0.352h-0.352v-0.352H49.964z M49.263,33.492v0.352h-0.352v-0.352H49.263z M48.561,33.492v0.352h-0.349v-0.352H48.561z
			 M47.86,33.492v0.352h-0.352v-0.352H47.86z M46.806,33.492h0.352v0.352h-0.352V33.492z M46.806,34.194h0.352v0.352h-0.352V34.194z
			 M46.806,34.895h0.352v0.352h-0.352V34.895z M46.806,35.597h0.352v0.352h-0.352V35.597z M46.806,36.301h0.352v0.352h-0.352V36.301
			z M46.806,37.002h0.352v0.352h-0.352V37.002z M46.806,37.704h0.352v0.352h-0.352V37.704z M46.806,38.405h0.352v0.352h-0.352
			V38.405z M46.806,39.107h0.352v0.352h-0.352V39.107z M46.806,39.808h0.352v0.352h-0.352V39.808z M46.806,40.51h0.352v0.352h-0.352
			V40.51z M46.806,41.211h0.352v0.352h-0.352V41.211z M46.806,42.265v-0.352h0.352v0.352H46.806z M47.51,42.617h0.352v0.352H47.51
			V42.617z M47.51,43.318h0.352v0.352H47.51V43.318z M47.51,44.02h0.352v0.352H47.51V44.02z M47.51,44.721h0.352v0.349H47.51V44.721
			z M47.51,45.772V45.42h0.352v0.352H47.51z M48.212,47.178v-0.352h0.352v0.352H48.212z M51.719,49.984v-0.352h0.352v0.352H51.719z
			 M52.421,49.984v-0.352h0.352v0.352H52.421z M53.122,49.984v-0.352h0.352v0.352H53.122z M54.877,49.984v-0.352h0.352v0.352H54.877
			z M55.579,49.984v-0.352h0.352v0.352H55.579z M56.28,49.984v-0.352h0.352v0.352H56.28z M57.333,49.984h-0.352v-0.352h0.352V49.984
			z M58.035,49.282h-0.352V48.93h0.352V49.282z M58.736,48.58h-0.352v-0.352h0.352V48.58z M59.438,47.879h-0.349v-0.352h0.352v0.352
			H59.438z M60.14,47.178h-0.352v-0.352h0.352V47.178z M60.14,46.476h-0.352v-0.352h0.352V46.476z M60.841,45.772h-0.352V45.42
			h0.352V45.772z M60.841,45.071h-0.352v-0.352h0.352V45.071z M60.841,44.369h-0.352V44.02h0.352V44.369z M60.841,43.668h-0.352
			v-0.352h0.352V43.668z M60.841,42.966h-0.352v-0.352h0.352V42.966z M61.545,42.265h-0.352v-0.352h0.352V42.265z M61.545,41.563
			h-0.352v-0.352h0.352V41.563z M61.545,40.862h-0.352V40.51h0.352V40.862z M61.545,40.16h-0.352v-0.352h0.352V40.16z
			 M61.545,39.459h-0.352v-0.352h0.352V39.459z M61.545,38.755h-0.352v-0.352h0.352V38.755z M61.545,38.053h-0.352v-0.352h0.352
			V38.053z M61.545,37.352h-0.352V37h0.352V37.352z M61.545,36.65h-0.352v-0.352h0.352V36.65z M61.545,35.597v0.352h-0.352v-0.352
			H61.545z M61.545,34.546h-0.352v-0.352h0.352V34.546z M61.545,33.844h-0.352v-0.352h0.352V33.844z"/>
		<path fill="#C260FF" d="M53.474,44.02h-0.702v0.349h0.702V44.02z M54.877,44.369h0.702V44.02h-0.702V44.369z"/>
		<path fill="#C260FF" d="M61.193,38.405h0.352v0.352h-0.352V38.405z"/>
		<path fill="#C260FF" d="M61.193,39.107h0.352v0.352h-0.352V39.107z"/>
		<path fill="#C260FF" d="M61.193,37.704h0.352v0.352h-0.352V37.704z"/>
		<path fill="#C260FF" d="M61.193,37.002h0.352v0.352h-0.352V37.002z"/>
		<path fill="#C260FF" d="M61.193,36.301h0.352v0.352h-0.352V36.301z"/>
		<path fill="#C260FF" d="M61.193,35.597h0.352v0.352h-0.352V35.597z"/>
		<path fill="#C260FF" d="M61.193,34.895h0.352v0.352h-0.352V34.895z"/>
		<path fill="#C260FF" d="M46.806,39.107h0.352v0.352h-0.352V39.107z"/>
		<path fill="#C260FF" d="M55.931,45.071v0.352h0.702v-0.352H55.931z M56.982,46.476h0.704v-0.352h-0.704V46.476z M56.632,46.124
			H55.93v0.352h0.702V46.124z"/>
		<path fill="#C260FF" d="M59.089,47.527h0.352v0.352h-0.352V47.527z"/>
		<path fill="#C260FF" d="M59.79,46.124h0.352v0.352H59.79V46.124z"/>
		<path fill="#C260FF" d="M59.79,46.825h0.352v0.352H59.79V46.825z"/>
		<path fill="#C260FF" d="M53.474,45.071h-0.702v0.352h0.702V45.071z M51.719,45.423h0.702v-0.352h-0.702V45.423z M53.474,46.124
			h-0.702v0.352h0.702V46.124z M51.719,46.476h0.702v-0.352h-0.702V46.476z M51.37,46.476v-0.352h-0.704v0.352H51.37z"/>
		<path fill="#C260FF" d="M52.421,49.634h0.352v0.352h-0.352V49.634z"/>
		<path fill="#C260FF" d="M54.877,45.423h0.702v-0.352h-0.702V45.423z M54.877,46.476h0.702v-0.352h-0.702V46.476z"/>
		<path fill="#C260FF" d="M51.719,49.634h0.352v0.352h-0.352V49.634z"/>
		<path fill="#C260FF" d="M46.806,38.405h0.352v0.352h-0.352V38.405z"/>
		<path fill="#C260FF" d="M46.806,37.704h0.352v0.352h-0.352V37.704z"/>
		<path fill="#C260FF" d="M46.806,37.002h0.352v0.352h-0.352V37.002z"/>
		<path fill="#C260FF" d="M46.806,36.301h0.352v0.352h-0.352V36.301z"/>
		<path fill="#C260FF" d="M46.806,35.597h0.352v0.352h-0.352V35.597z"/>
		<path fill="#C260FF" d="M46.806,34.895h0.352v0.352h-0.352V34.895z"/>
		<path fill="#C260FF" d="M54.877,49.634h0.352v0.352h-0.352V49.634z"/>
		<path fill="#C260FF" d="M55.579,49.634h0.352v0.352h-0.352V49.634z"/>
		<path fill="#C260FF" d="M58.387,48.229h0.352v0.352h-0.352V48.229z"/>
		<path fill="#C260FF" d="M57.685,48.93h0.352v0.352h-0.352V48.93z"/>
		<path fill="#C260FF" d="M56.982,49.634h0.352v0.352h-0.352V49.634z"/>
		<path fill="#C260FF" d="M56.28,49.634h0.352v0.352H56.28V49.634z"/>
		<path fill="#C260FF" d="M53.122,49.634h0.352v0.352h-0.352V49.634z"/>
		<path fill="#C260FF" d="M54.528,43.318v-0.352h-0.704v0.352H54.528z M53.824,44.369h0.704V44.02h-0.704V44.369z M53.824,45.423
			h0.704v-0.352h-0.704V45.423z M53.824,46.476h0.704v-0.352h-0.704V46.476z"/>
		<path fill="#C260FF" d="M57.685,50.335v0.702h0.702v-0.702H57.685z"/>
		<path fill="#C260FF" d="M58.387,49.634v0.702h0.702v-0.702H58.387z"/>
		<path fill="#C260FF" d="M59.089,48.93v0.704h0.702V48.93H59.089z"/>
		<path fill="#C260FF" d="M59.79,48.229v0.702h0.702v-0.702H59.79z"/>
		<path fill="#C260FF" d="M60.491,47.527v0.702h0.702v-0.702H60.491z"/>
		<path fill="#C260FF" d="M61.193,46.124v1.403h0.702v-1.403H61.193z"/>
		<path fill="#C260FF" d="M61.895,42.617v3.507h0.702v-3.507H61.895z"/>
		<path fill="#C260FF" d="M60.491,44.721h0.352v0.352h-0.352V44.721z"/>
		<path fill="#C260FF" d="M60.491,45.423h0.352v0.352h-0.352V45.423z"/>
		<path fill="#C260FF" d="M60.491,43.318h0.352v0.352h-0.352V43.318z"/>
		<path fill="#C260FF" d="M60.491,44.02h0.352v0.352h-0.352V44.02z"/>
		<path fill="#C260FF" d="M60.491,42.617h0.352v0.352h-0.352V42.617z"/>
		<path fill="#C260FF" d="M61.193,39.808h0.352v0.352h-0.352V39.808z"/>
		<path fill="#C260FF" d="M61.193,41.913h0.352v0.352h-0.352V41.913z"/>
		<path fill="#C260FF" d="M61.193,41.211h0.352v0.352h-0.352V41.211z"/>
		<path fill="#C260FF" d="M61.193,40.51h0.352v0.352h-0.352V40.51z"/>
		<path fill="#C260FF" d="M61.193,34.194h0.352v0.352h-0.352V34.194z"/>
		<path fill="#C260FF" d="M59.79,33.492h0.352v0.352H59.79V33.492z"/>
		<path fill="#C260FF" d="M61.193,33.492h0.352v0.352h-0.352V33.492z"/>
		<path fill="#C260FF" d="M60.491,33.492h0.352v0.352h-0.352V33.492z"/>
		<path fill="#C260FF" d="M62.948,31.737H45.054v10.879h0.702V32.441h16.841v10.175h0.702V31.737H62.948z"/>
		<path fill="#C260FF" d="M46.806,34.194h0.352v0.352h-0.352V34.194z"/>
		<path fill="#C260FF" d="M52.421,33.492h0.352v0.352h-0.352V33.492z"/>
		<path fill="#C260FF" d="M51.719,33.492h0.352v0.352h-0.352V33.492z"/>
		<path fill="#C260FF" d="M51.018,33.492h0.352v0.352h-0.352V33.492z"/>
		<path fill="#C260FF" d="M50.316,33.492h0.352v0.352h-0.352V33.492z"/>
		<path fill="#C260FF" d="M49.615,33.492h0.352v0.352h-0.352V33.492z"/>
		<path fill="#C260FF" d="M48.913,33.492h0.352v0.352h-0.352V33.492z"/>
		<path fill="#C260FF" d="M48.212,33.492h0.352v0.352h-0.352V33.492z"/>
		<path fill="#C260FF" d="M47.51,33.492h0.352v0.352H47.51V33.492z"/>
		<path fill="#C260FF" d="M46.806,33.492h0.352v0.352h-0.352V33.492z"/>
		<path fill="#C260FF" d="M59.089,33.492h0.352v0.352h-0.352V33.492z"/>
		<path fill="#C260FF" d="M58.387,33.492h0.352v0.352h-0.352V33.492z"/>
		<path fill="#C260FF" d="M57.685,33.492h0.352v0.352h-0.352V33.492z"/>
		<path fill="#C260FF" d="M56.982,33.492h0.352v0.352h-0.352V33.492z"/>
		<path fill="#C260FF" d="M56.28,33.492h0.352v0.352H56.28V33.492z"/>
		<path fill="#C260FF" d="M55.579,33.492h0.352v0.352h-0.352V33.492z"/>
		<path fill="#C260FF" d="M54.877,33.492h0.352v0.352h-0.352V33.492z"/>
		<path fill="#C260FF" d="M45.755,43.318v2.806h0.702v-3.507h-0.702V43.318z"/>
		<path fill="#C260FF" d="M46.457,46.825v0.702h0.702v-1.403h-0.702V46.825z"/>
		<path fill="#C260FF" d="M47.158,48.229h0.702v-0.702h-0.702V48.229z"/>
		<path fill="#C260FF" d="M47.86,48.93h0.702v-0.702H47.86V48.93z"/>
		<path fill="#C260FF" d="M48.561,49.634h0.702V48.93h-0.702V49.634z"/>
		<path fill="#C260FF" d="M49.263,50.335h0.702v-0.702h-0.702V50.335z M56.982,51.037H51.37h-0.704v0.702h0.704h6.316v-0.702H56.982
			z"/>
		<path fill="#C260FF" d="M49.964,50.335v0.702h0.702v-0.702H49.964z"/>
		<path fill="#C260FF" d="M48.913,47.527h0.352v0.352h-0.352V47.527z"/>
		<path fill="#C260FF" d="M49.615,48.229h0.352v0.352h-0.352V48.229z"/>
		<path fill="#C260FF" d="M50.316,48.93h0.352v0.352h-0.352V48.93z"/>
		<path fill="#C260FF" d="M51.018,49.634h0.352v0.352h-0.352V49.634z"/>
		<path fill="#C260FF" d="M48.212,46.124h0.352v0.352h-0.352V46.124z"/>
		<path fill="#C260FF" d="M48.212,46.825h0.352v0.352h-0.352V46.825z"/>
		<path fill="#C260FF" d="M47.51,42.617h0.352v0.352H47.51V42.617z"/>
		<path fill="#C260FF" d="M47.51,43.318h0.352v0.352H47.51V43.318z"/>
		<path fill="#C260FF" d="M47.51,44.02h0.352v0.352H47.51V44.02z"/>
		<path fill="#C260FF" d="M47.51,44.721h0.352v0.352H47.51V44.721z"/>
		<path fill="#C260FF" d="M47.51,45.423h0.352v0.352H47.51V45.423z"/>
		<path fill="#C260FF" d="M46.806,39.808h0.352v0.352h-0.352V39.808z"/>
		<path fill="#C260FF" d="M46.806,41.913h0.352v0.352h-0.352V41.913z"/>
		<path fill="#C260FF" d="M46.806,41.211h0.352v0.352h-0.352V41.211z"/>
		<path fill="#C260FF" d="M46.806,40.51h0.352v0.352h-0.352V40.51z"/>
		<path fill="#A00AE6" d="M54.176,37.704h-0.702v0.349h1.403v-0.349H54.176z M54.528,39.107h-0.704v0.352h0.704V39.107z
			 M52.421,41.211v-0.349h-0.349v0.702h0.349V41.211z M51.719,41.563V40.51H51.37v1.403h0.349V41.563z M56.28,41.211v-0.349h-0.349
			v0.702h0.349V41.211z M56.982,41.563V40.51h-0.349v1.403h0.349V41.563z M53.474,44.721v-0.352h-0.702v0.352H53.474z
			 M54.877,44.369v0.352h0.702v-0.352H54.877z M45.755,32.441v10.175h0.702v-9.474h15.438v9.474h0.702V32.441H45.755z"/>
		<path fill="#A00AE6" d="M61.193,42.617v3.507h0.702v-3.507H61.193z M56.632,45.772v-0.349H55.93v0.349H56.632z"/>
		<path fill="#A00AE6" d="M56.982,46.476v0.349h0.704v-0.349H56.982z M60.491,46.124v1.403h0.702v-1.403H60.491z M56.632,46.825
			v-0.349H55.93v0.349H56.632z M56.982,47.178h-6.316v0.349h7.02v-0.349H56.982z"/>
		<path fill="#A00AE6" d="M59.79,47.527v0.702h0.702v-0.702H59.79z"/>
		<path fill="#A00AE6" d="M55.931,47.879h-1.053h-0.349h-2.808v0.349h2.808h0.349h1.755v-0.349H55.931z M58.387,48.93v0.704h0.702
			V48.93H58.387z"/>
		<path fill="#A00AE6" d="M59.089,48.229v0.702h0.702v-0.702H59.089z"/>
		<path fill="#A00AE6" d="M53.474,45.772v-0.349h-0.702v0.349H53.474z M51.719,45.772h0.702v-0.349h-0.702V45.772z M53.474,46.825
			v-0.349h-0.702v0.349H53.474z M51.719,46.476v0.349h0.702v-0.349H51.719z M50.666,46.825h0.704v-0.349h-0.704V46.825z
			 M55.579,45.423h-0.702v0.349h0.702V45.423z M54.877,46.476v0.349h0.702v-0.349H54.877z M54.877,48.58h-2.104v0.349h2.806V48.58
			H54.877z"/>
		<path fill="#A00AE6" d="M57.685,49.634v0.702h0.702v-0.702H57.685z"/>
		<path fill="#A00AE6" d="M50.666,49.634h-0.702v0.702h0.702V49.634z"/>
		<path fill="#A00AE6" d="M49.964,48.93h-0.702v0.704h0.702V48.93z"/>
		<path fill="#A00AE6" d="M49.263,48.229h-0.702v0.702h0.702V48.229z"/>
		<path fill="#A00AE6" d="M48.561,47.527H47.86v0.702h0.702V47.527z"/>
		<path fill="#A00AE6" d="M47.86,46.825v-0.702h-0.702v1.403h0.702V46.825z M53.824,38.755h1.405v-0.349h-2.107v0.349H53.824z
			 M53.824,49.282v0.352h0.704v-0.352H53.824z M50.666,50.335v0.702h7.02v-0.702H50.666z M54.528,45.423h-0.704v0.349h0.704V45.423z
			 M54.528,44.369h-0.704v0.352h0.704V44.369z M54.528,43.318h-0.704v0.349h0.704V43.318z M53.824,46.476v0.349h0.704v-0.349H53.824
			z"/>
		<path fill="#A00AE6" d="M47.158,45.423v-2.806h-0.702v3.507h0.702V45.423z M59.438,40.51h-1.405v0.352h-0.352v2.464h0.352v0.352
			h1.408v-0.352h0.352v-2.464H59.44V40.51H59.438z M59.089,41.563v1.408h-0.704v-1.76h0.704V41.563z M50.666,42.966v-2.464h-0.352
			v-0.352h-1.403v0.352h-0.352v2.816h0.704v-1.056h0.704v1.056h0.704v-0.352L50.666,42.966L50.666,42.966z M49.263,41.211v-0.352
			h0.704v0.704h-0.704V41.211z M53.824,37.002h0.704V36.65h0.352v-0.352h0.352v-1.76H54.88v-0.345h-0.352v-0.352H53.12v3.168h0.704
			L53.824,37.002L53.824,37.002z M53.824,35.949v-1.408h0.352v0.352h0.352v1.056h-0.352v0.352h-0.352V35.949z"/>
		<path fill="#64438E" d="M56.632,44.02h0.352v0.352h-0.352V44.02z"/>
		<path fill="#64438E" d="M56.982,44.369h0.352v0.352h-0.352V44.369z"/>
		<path fill="#64438E" d="M57.333,44.721h0.352v0.352h-0.352V44.721z"/>
		<path fill="#64438E" d="M57.685,45.071h0.352v0.352h-0.352V45.071z"/>
		<path fill="#64438E" d="M58.035,45.423h0.352v0.352h-0.352V45.423z"/>
		<path fill="#64438E" d="M58.387,45.772h0.352v0.352h-0.352V45.772z"/>
		<path fill="#64438E" d="M54.527,41.913h0.352v0.352h-0.352V41.913z"/>
		<path fill="#64438E" d="M54.877,42.265h0.352v0.352h-0.352V42.265z"/>
		<path fill="#64438E" d="M55.229,42.617h0.352v0.352h-0.352V42.617z"/>
		<path fill="#64438E" d="M55.579,42.966h0.352v0.352h-0.352V42.966z"/>
		<path fill="#64438E" d="M55.931,43.318h0.352v0.352h-0.352V43.318z"/>
		<path fill="#64438E" d="M56.28,43.668h0.352v0.352H56.28V43.668z"/>
		<path fill="#64438E" d="M52.421,39.808h0.352v0.352h-0.352V39.808z"/>
		<path fill="#64438E" d="M52.773,40.16h0.352v0.352h-0.352V40.16z"/>
		<path fill="#64438E" d="M53.122,40.51h0.352v0.352h-0.352V40.51z"/>
		<path fill="#64438E" d="M54.527,41.211v-0.349h-1.053v0.349h0.349v0.352h0.352v0.349h0.352V41.211z"/>
		<path fill="#64438E" d="M51.37,38.755h0.352v0.352H51.37V38.755z"/>
		<path fill="#64438E" d="M51.719,39.107h0.352v0.352h-0.352V39.107z"/>
		<path fill="#64438E" d="M52.071,39.459h0.352v0.352h-0.352V39.459z"/>
		<path fill="#E4B9FF" d="M50.666,37.704h0.352v0.352h-0.352V37.704z"/>
		<path fill="#E4B9FF" d="M48.913,35.949h0.352v0.352h-0.352V35.949z"/>
		<path fill="#C260FF" d="M56.982,43.668h0.352v0.352h-0.352V43.668z"/>
		<path fill="#C260FF" d="M57.333,44.02h0.352v0.352h-0.352V44.02z"/>
		<path fill="#C260FF" d="M57.685,44.369h0.352v0.352h-0.352V44.369z"/>
		<path fill="#C260FF" d="M58.387,45.071h0.352v0.352h-0.352V45.071z"/>
		<path fill="#C260FF" d="M58.736,45.423h0.352v0.352h-0.352V45.423z"/>
		<path fill="#C260FF" d="M54.877,41.563h0.352v0.352h-0.352V41.563z"/>
		<path fill="#C260FF" d="M55.229,41.913h0.352v0.352h-0.352V41.913z"/>
		<path fill="#C260FF" d="M56.632,43.318h0.352v0.352h-0.352V43.318z"/>
		<path fill="#C260FF" d="M52.773,39.459h0.352v0.352h-0.352V39.459z"/>
		<path fill="#C260FF" d="M53.824,40.51h0.352v0.352h-0.352V40.51z"/>
		<path fill="#C260FF" d="M54.528,41.211h0.352v0.352h-0.352V41.211z"/>
		<path fill="#C260FF" d="M51.018,38.053h-0.352v0.352h0.352v0.35h0.352v-0.35h-0.352V38.053z"/>
		<path fill="#C260FF" d="M51.37,38.053v-0.349h-0.352v0.349H51.37v0.352h0.35v-0.352H51.37z"/>
		<path fill="#C260FF" d="M51.719,38.405h0.352v0.352h-0.352V38.405z"/>
		<path fill="#C260FF" d="M52.421,39.107h0.352v0.352h-0.352V39.107z"/>
		<path fill="#C260FF" d="M49.964,35.949h-0.349v0.352h0.349v0.35h0.352v-0.35h-0.352V35.949z"/>
		<path fill="#C260FF" d="M51.018,37.352v-0.349h-0.352V36.65h-0.35v0.352h0.35v0.349H51.018z"/>
		<path fill="#C260FF" d="M51.018,36.301h0.352v0.352h-0.352V36.301z"/>
		<path fill="#C260FF" d="M50.666,36.301h0.352v-0.352h-0.352v-0.352h-0.35v0.352h0.35V36.301z M48.561,35.949h0.352v0.352h-0.352
			V35.949z"/>
		<path fill="#C260FF" d="M48.913,35.597h0.352v0.352h-0.352V35.597z"/>
		<path fill="#C260FF" d="M48.561,37.352h0.352v0.352h-0.352V37.352z M49.964,37.352h-0.349v0.352h0.349v0.349h0.352v-0.349h-0.352
			V37.352z"/>
		<path fill="#C260FF" d="M49.263,37.352h0.352v-0.349h-0.352V36.65h-0.349v0.352h0.349V37.352z M49.263,37.704h-0.349v0.349h0.349
			v0.352h0.352v-0.352h-0.352V37.704z"/>
		<path fill="#C260FF" d="M48.212,35.597h0.352v0.352h-0.352V35.597z"/>
		<path fill="#C260FF" d="M48.561,35.247h0.352v0.352h-0.352V35.247z"/>
		<path fill="#F8EBFF" d="M58.035,44.721h0.352v0.352h-0.352V44.721z"/>
		<path fill="#F8EBFF" d="M55.579,42.265h0.352v0.352h-0.352V42.265z"/>
		<path fill="#F8EBFF" d="M55.931,42.617h0.352v0.352h-0.352V42.617z"/>
		<path fill="#F8EBFF" d="M56.28,42.966h0.352v0.352H56.28V42.966z"/>
		<path fill="#F8EBFF" d="M53.122,39.808h0.352v0.352h-0.352V39.808z"/>
		<path fill="#F8EBFF" d="M53.474,40.16h0.352v0.352h-0.352V40.16z"/>
		<path fill="#F8EBFF" d="M52.071,38.755h0.352v0.352h-0.352V38.755z"/>
		<path fill="#F8EBFF" d="M50.316,37.352h0.352v0.352h-0.352V37.352z"/>
		<path fill="#F8EBFF" d="M49.964,37.002h0.352v0.352h-0.352V37.002z"/>
		<path fill="#F8EBFF" d="M49.615,36.65h0.352v0.352h-0.352V36.65z"/>
		<path fill="#F8EBFF" d="M49.263,36.301h0.352v0.352h-0.352V36.301z"/>
		<path fill="#F8EBFF" d="M50.666,35.949h-0.35v0.352h0.35v0.35h0.352v-0.35h-0.352V35.949z M48.561,35.597h0.352v0.352h-0.352
			V35.597z"/>
		<path fill="#F8EBFF" d="M48.913,37.352h0.352v0.352h-0.352V37.352z"/>
		<path fill="#F8EBFF" d="M49.263,37.704h0.352v0.352h-0.352V37.704z"/>
		<path fill="#F8EBFF" d="M51.018,38.053h0.352v0.352h-0.352V38.053z"/>
		<path fill="#A00AE6" d="M56.632,43.668h0.352v0.352h-0.352V43.668z"/>
		<path fill="#A00AE6" d="M56.982,44.02h0.352v0.352h-0.352V44.02z"/>
		<path fill="#A00AE6" d="M57.333,44.369h0.352v0.352h-0.352V44.369z"/>
		<path fill="#A00AE6" d="M57.685,44.721h0.352v0.352h-0.352V44.721z"/>
		<path fill="#A00AE6" d="M58.035,45.071h0.352v0.352h-0.352V45.071z"/>
		<path fill="#A00AE6" d="M58.387,45.423h0.352v0.352h-0.352V45.423z"/>
		<path fill="#A00AE6" d="M58.736,45.772h0.352v0.352h-0.352V45.772z"/>
		<path fill="#A00AE6" d="M54.528,41.563h0.352v0.352h-0.352V41.563z"/>
		<path fill="#A00AE6" d="M54.877,41.913h0.352v0.352h-0.352V41.913z"/>
		<path fill="#A00AE6" d="M55.229,42.265h0.352v0.352h-0.352V42.265z"/>
		<path fill="#A00AE6" d="M55.579,42.617h0.352v0.352h-0.352V42.617z"/>
		<path fill="#A00AE6" d="M55.931,42.966h0.352v0.352h-0.352V42.966z"/>
		<path fill="#A00AE6" d="M56.28,43.318h0.352v0.352H56.28V43.318z"/>
		<path fill="#A00AE6" d="M52.421,39.459h0.352v0.352h-0.352V39.459z"/>
		<path fill="#A00AE6" d="M52.773,39.808h0.352v0.352h-0.352V39.808z"/>
		<path fill="#A00AE6" d="M53.122,40.16h0.352v0.352h-0.352V40.16z"/>
		<path fill="#A00AE6" d="M53.474,40.51h0.352v0.352h-0.352V40.51z"/>
		<path fill="#A00AE6" d="M49.263,35.949h0.702v0.352h0.352v-0.352h-0.352v-0.352h-0.702V35.949z"/>
		<path fill="#A00AE6" d="M50.666,36.301h-0.35v0.35h0.35v0.352h0.352V36.65h-0.352V36.301z"/>
		<path fill="#A00AE6" d="M51.018,37.002h0.352v0.352h-0.352V37.002z"/>
		<path fill="#A00AE6" d="M51.018,35.949h0.352v0.352h-0.352V35.949z"/>
		<path fill="#A00AE6" d="M51.37,35.949v-0.352h-0.704v0.352H51.37z M48.913,37.002v0.349h0.349v-0.349H48.913v-0.702h-0.352h-0.349
			v0.349h0.349v0.352L48.913,37.002L48.913,37.002z"/>
		<path fill="#A00AE6" d="M50.316,38.405v-0.352h-0.352v-0.349h-0.349v-0.352h-0.352v0.352h0.352v0.349h0.349v0.352H50.316v0.35
			h0.35v-0.35v-0.352h-0.35V38.405z"/>
		<path fill="#A00AE6" d="M48.913,38.053h0.352v0.352h-0.352V38.053z"/>
		<path fill="#A00AE6" d="M48.561,38.053v0.352h0.352v-0.702h-0.352V38.053z"/>
		<path fill="#A00AE6" d="M49.263,35.247h0.352v0.352h-0.352V35.247z"/>
		<path fill="#A00AE6" d="M51.719,37.704v-0.352h-0.35h-0.352v0.352h0.352H51.719z"/>
		<path fill="#A00AE6" d="M48.212,35.247h0.352v0.352h-0.352V35.247z"/>
		<path fill="#A00AE6" d="M51.37,38.405h0.352v0.352H51.37V38.405z"/>
		<path fill="#A00AE6" d="M51.719,38.755h0.352v0.352h-0.352V38.755z"/>
		<path fill="#A00AE6" d="M52.071,39.107h0.352v0.352h-0.352V39.107z"/>
		<path fill="#D28AFF" d="M50.316,37.704h0.352v0.352h-0.352V37.704z"/>
		<path fill="#D28AFF" d="M50.666,37.352h0.352v0.352h-0.352V37.352z"/>
		<path fill="#D28AFF" d="M49.964,37.352h0.352v0.352h-0.352V37.352z"/>
		<path fill="#D28AFF" d="M50.316,37.002h0.352v0.352h-0.352V37.002z"/>
		<path fill="#D28AFF" d="M49.615,37.002h0.352v0.352h-0.352V37.002z"/>
		<path fill="#D28AFF" d="M49.964,36.65h0.352v0.352h-0.352V36.65z"/>
		<path fill="#D28AFF" d="M49.263,36.65h0.352v0.352h-0.352V36.65z"/>
		<path fill="#D28AFF" d="M49.615,36.301h0.352v0.352h-0.352V36.301z"/>
		<path fill="#D28AFF" d="M48.913,36.301h0.352v0.352h-0.352V36.301z"/>
		<path fill="#D28AFF" d="M49.263,35.949h0.352v0.352h-0.352V35.949z"/>
		<path fill="#D28AFF" d="M49.964,35.597h0.352v0.352h-0.352V35.597z"/>
		<path fill="#D28AFF" d="M51.018,36.65h0.352v0.352h-0.352V36.65z"/>
		<path fill="#D28AFF" d="M48.561,37.002h0.352v0.352h-0.352V37.002z"/>
		<path fill="#D28AFF" d="M49.615,38.053h0.352v0.352h-0.352V38.053z"/>
		<path fill="#D28AFF" d="M48.212,35.949h0.352v0.352h-0.352V35.949z"/>
		<path fill="#D28AFF" d="M48.913,35.247h0.352v0.352h-0.352V35.247z"/>
		<path fill="#D28AFF" d="M51.37,37.704h0.352v0.352H51.37V37.704z"/>
		<path fill="#D28AFF" d="M50.666,38.405h0.352v0.352h-0.352V38.405z"/>
		<path fill="#D9D35E" d="M55.579,39.107h0.352v0.352h-0.352V39.107z"/>
		<path fill="#D9D35E" d="M55.229,39.459h0.352v0.352h-0.352V39.459z"/>
		<path fill="#D9D35E" d="M51.018,43.668h0.352v0.352h-0.352V43.668z"/>
		<path fill="#D9D35E" d="M50.666,44.02h0.352v0.352h-0.352V44.02z"/>
		<path fill="#D9D35E" d="M50.316,44.369h0.352v0.352h-0.352V44.369z"/>
		<path fill="#D9D35E" d="M49.615,45.423h-0.352v0.349h0.352V45.423h0.349v-0.352h-0.349V45.423z"/>
		<path fill="#D9D35E" d="M53.122,41.563h0.352v0.352h-0.352V41.563z"/>
		<path fill="#D9D35E" d="M52.773,41.913h0.352v0.352h-0.352V41.913z"/>
		<path fill="#D9D35E" d="M51.37,43.318h0.352v0.352H51.37V43.318z"/>
		<path fill="#D9D35E" d="M54.176,40.51h0.352v0.352h-0.352V40.51z"/>
		<path fill="#D9D35E" d="M53.824,40.862h0.352v0.352h-0.352V40.862z"/>
		<path fill="#D9D35E" d="M53.474,41.211h0.352v0.352h-0.352V41.211z"/>
		<path fill="#D9D35E" d="M56.982,37.704h0.352v0.352h-0.352V37.704z"/>
		<path fill="#D9D35E" d="M56.632,38.053h0.352v0.352h-0.352V38.053z"/>
		<path fill="#D9D35E" d="M56.28,38.405h0.352v0.352H56.28V38.405z"/>
		<path fill="#D9D35E" d="M58.387,36.301h0.352v0.352h-0.352V36.301z"/>
		<path fill="#D9D35E" d="M58.736,35.949h0.352v0.352h-0.352V35.949z"/>
		<path fill="#D9D35E" d="M58.035,35.247h-0.352v0.352h-0.352v0.352h-0.352v-0.352h-0.352v0.352h-0.352v0.352h-0.352v0.352h-0.352
			v0.352H55.22v0.352h0.352v0.352h0.352v0.352h0.352v-0.352h-0.352v-0.351h0.352v-0.352h0.352v-0.352h0.352v-0.352h0.352v-0.352
			h0.352v-0.352h0.352V35.247h0.352v-0.352h-0.352V35.247z M55.579,37.352V37h0.352v0.352H55.579z M55.931,37.002V36.65h0.352v0.352
			H55.931z M56.28,36.65v-0.352h0.352v0.352H56.28z M56.632,36.301v-0.352h0.352v0.352H56.632z"/>
		<path fill="#DDEDD6" d="M55.931,38.755h0.352v0.352h-0.352V38.755z"/>
		<path fill="#DDEDD6" d="M57.333,37.352h0.352v0.352h-0.352V37.352z"/>
		<path fill="#DDEDD6" d="M57.685,37.002h0.352v0.352h-0.352V37.002z"/>
		<path fill="#DDEDD6" d="M58.035,36.65h0.352v0.352h-0.352V36.65z"/>
		<path fill="#DDEDD6" d="M57.333,35.247h0.352v-0.352h0.35v-0.35h-0.35v0.35h-0.352V35.247h-0.352v0.349h0.352V35.247z"/>
		<path fill="#DDEDD6" d="M56.982,38.755h0.352v0.352h-0.352V38.755z"/>
		<path fill="#DDEDD6" d="M49.964,44.721h0.352v0.352h-0.352V44.721z"/>
		<path fill="#DDEDD6" d="M52.421,42.265h0.352v0.352h-0.352V42.265z"/>
		<path fill="#DDEDD6" d="M52.071,42.617h0.352v0.352h-0.352V42.617z"/>
		<path fill="#DDEDD6" d="M51.719,42.966h0.352v0.352h-0.352V42.966z"/>
		<path fill="#DDEDD6" d="M59.089,35.597h0.352v0.352h-0.352V35.597z"/>
		<path fill="#DDEDD6" d="M54.877,39.808h0.352v0.352h-0.352V39.808z"/>
		<path fill="#DDEDD6" d="M54.528,40.16h0.352v0.352h-0.352V40.16z"/>
		<path fill="#D27D2C" d="M51.37,43.668h0.352v0.352H51.37V43.668z"/>
		<path fill="#D27D2C" d="M51.018,44.02h0.352v0.352h-0.352V44.02z"/>
		<path fill="#D27D2C" d="M50.666,44.369h0.352v0.352h-0.352V44.369z"/>
		<path fill="#D27D2C" d="M50.316,44.721h0.352v0.352h-0.352V44.721z"/>
		<path fill="#D27D2C" d="M49.964,45.071h0.352v0.352h-0.352V45.071z"/>
		<path fill="#D27D2C" d="M49.615,45.772h-0.352v0.352h0.352V45.772h0.349v-0.349h-0.349V45.772z"/>
		<path fill="#D27D2C" d="M53.474,41.563h0.352v0.352h-0.352V41.563z"/>
		<path fill="#D27D2C" d="M53.122,41.913h0.352v0.352h-0.352V41.913z"/>
		<path fill="#D27D2C" d="M52.773,42.265h0.352v0.352h-0.352V42.265z"/>
		<path fill="#D27D2C" d="M52.421,42.617h0.352v0.352h-0.352V42.617z"/>
		<path fill="#D27D2C" d="M52.071,42.966h0.352v0.352h-0.352V42.966z"/>
		<path fill="#D27D2C" d="M51.719,43.318h0.352v0.352h-0.352V43.318z"/>
		<path fill="#D27D2C" d="M55.579,39.459h0.352v0.352h-0.352V39.459z"/>
		<path fill="#D27D2C" d="M55.229,39.808h0.352v0.352h-0.352V39.808z"/>
		<path fill="#D27D2C" d="M54.877,40.16h0.352v0.352h-0.352V40.16z"/>
		<path fill="#D27D2C" d="M54.528,40.51h0.352v0.352h-0.352V40.51z"/>
		<path fill="#D27D2C" d="M54.176,40.862h0.352v0.352h-0.352V40.862z"/>
		<path fill="#D27D2C" d="M53.824,41.211h0.352v0.352h-0.352V41.211z"/>
		<path fill="#D27D2C" d="M57.334,37.704h0.352v0.352h-0.352V37.704z"/>
		<path fill="#D27D2C" d="M57.685,37.352h0.352v0.352h-0.352V37.352z"/>
		<path fill="#D27D2C" d="M58.035,37.002h0.352v0.352h-0.352V37.002z"/>
		<path fill="#D27D2C" d="M58.387,36.65h0.352v0.352h-0.352V36.65z"/>
		<path fill="#D27D2C" d="M58.736,36.301h0.352v0.352h-0.352V36.301z"/>
		<path fill="#D27D2C" d="M59.089,35.949h0.352v0.352h-0.352V35.949z"/>
		<path fill="#D27D2C" d="M59.438,35.597h0.352v0.352h-0.352V35.597z"/>
		<path fill="#D27D2C" d="M55.579,38.053h0.352v0.352h0.349v-0.352h-0.349v-0.349h-0.352v-0.352h-0.349v0.352h0.349V38.053z"/>
		<path fill="#D27D2C" d="M55.931,37.704h0.349v0.349h0.352v-0.349H56.28v-0.352h-0.349v-0.349h0.349V36.65h0.352v-0.35h0.35v-0.352
			h0.352v-0.352h0.352v-0.349h0.35v-0.352h0.352v-0.35h-0.352v0.35h-0.35v0.352h-0.352v0.349h-0.352v0.352h-0.35v0.352H56.28v0.35
			h-0.349v0.352h-0.352v0.349h0.352V37.704z M57.685,39.459h-0.352v-0.352h-0.352v0.352h0.352v0.35h0.352v0.352h0.35v-0.352h-0.35
			V39.459z"/>
		<path fill="#D27D2C" d="M60.491,37.002v0.349H60.14v0.352h-0.35v0.349h-0.352v0.352h-0.349v0.35h-0.352v0.352h-0.349v0.352h-0.352
			v-0.352h-0.35v-0.352h-0.352v0.352h0.352v0.352h0.35v0.35h0.352v-0.35h0.349v-0.352h0.352v-0.352h0.349v-0.35h0.352v-0.352h0.35
			v-0.349h0.352v-0.352h0.35v-0.349H60.491z"/>
		<path fill="#D27D2C" d="M56.982,38.053h0.352v0.352h-0.352V38.053z"/>
		<path fill="#D27D2C" d="M56.632,38.405h0.352v0.352h-0.352V38.405z"/>
		<path fill="#D27D2C" d="M56.28,38.755h0.352v0.352H56.28V38.755z"/>
		<path fill="#D27D2C" d="M55.931,39.107h0.352v0.352h-0.352V39.107z"/>
		<path fill="#854C30" d="M51.37,44.02h0.352v0.352H51.37V44.02z"/>
		<path fill="#854C30" d="M51.018,44.369h0.352v0.352h-0.352V44.369z"/>
		<path fill="#854C30" d="M50.666,44.721h0.352v0.352h-0.352V44.721z"/>
		<path fill="#854C30" d="M50.316,45.071h0.352v0.352h-0.352V45.071z"/>
		<path fill="#854C30" d="M49.964,45.772h-0.349v0.352h0.349V45.772h0.352v-0.349h-0.352V45.772z"/>
		<path fill="#854C30" d="M53.474,41.913h0.352v0.352h-0.352V41.913z"/>
		<path fill="#854C30" d="M53.122,42.265h0.352v0.352h-0.352V42.265z"/>
		<path fill="#854C30" d="M52.773,42.617h0.352v0.352h-0.352V42.617z"/>
		<path fill="#854C30" d="M52.421,42.966h0.352v0.352h-0.352V42.966z"/>
		<path fill="#854C30" d="M52.071,43.318h0.352v0.352h-0.352V43.318z"/>
		<path fill="#854C30" d="M51.719,43.668h0.352v0.352h-0.352V43.668z"/>
		<path fill="#854C30" d="M55.579,39.808h0.352v0.352h-0.352V39.808z"/>
		<path fill="#854C30" d="M55.229,40.16h0.352v0.352h-0.352V40.16z"/>
		<path fill="#854C30" d="M54.877,40.51h0.352v0.352h-0.352V40.51z"/>
		<path fill="#854C30" d="M54.528,40.862h0.352v0.352h-0.352V40.862z"/>
		<path fill="#854C30" d="M54.176,41.211h0.352v0.352h-0.352V41.211z"/>
		<path fill="#854C30" d="M53.824,41.563h0.352v0.352h-0.352V41.563z"/>
		<path fill="#854C30" d="M57.333,38.053h0.352v0.352h-0.352V38.053z"/>
		<path fill="#854C30" d="M56.982,38.405h0.352v0.352h-0.352V38.405z"/>
		<path fill="#854C30" d="M56.632,38.755h0.352v0.352h-0.352V38.755z"/>
		<path fill="#854C30" d="M56.28,39.107h0.352v0.352H56.28V39.107z"/>
		<path fill="#854C30" d="M55.931,39.459h0.352v0.352h-0.352V39.459z"/>
		<path fill="#854C30" d="M57.685,37.704h0.352v0.352h-0.352V37.704z"/>
		<path fill="#854C30" d="M58.035,37.352h0.352v0.352h-0.352V37.352z"/>
		<path fill="#854C30" d="M58.387,37.002h0.352v0.352h-0.352V37.002z"/>
		<path fill="#854C30" d="M58.736,36.65h0.352v0.352h-0.352V36.65z"/>
		<path fill="#854C30" d="M59.089,36.301h0.352v0.352h-0.352V36.301z"/>
		<path fill="#854C30" d="M59.438,35.949h0.352v0.352h-0.352V35.949z"/>
		<path fill="#854C30" d="M56.28,38.053h0.352v0.352H56.28V38.053z"/>
		<path fill="#854C30" d="M60.491,37.352V37H60.14v0.352h-0.352v0.352h-0.352v0.352h-0.347v0.352h-0.352v0.352h-0.352v0.347h-0.352
			v0.352h-0.352v-0.352h-0.352v0.352h0.352v0.352h0.352v0.352h0.352V39.81h0.352v-0.351h0.352v-0.352h0.352v-0.352h0.352v-0.352
			h0.352v-0.352h0.352v-0.352h0.352v-0.352h-0.357V37.352z M58.035,39.808v-0.352h0.352v0.352H58.035z M58.387,39.459v-0.352h0.352
			v0.352H58.387z M58.736,39.107v-0.352h0.352v0.352H58.736z M59.089,38.755v-0.352h0.352v0.352L59.089,38.755L59.089,38.755z
			 M59.438,38.405v-0.352h0.352v0.352H59.438z M59.79,38.053v-0.352h0.352v0.352H59.79z M60.14,37.704v-0.352h0.352v0.352H60.14z"/>
		<path fill="#F8EBFF" d="M52.071,35.949h0.352v0.352h-0.352V35.949z"/>
		<path fill="#F8EBFF" d="M52.071,35.247h0.352v0.352h-0.352V35.247z"/>
		<path fill="#F8EBFF" d="M52.071,34.546h0.352v0.352h-0.352V34.546z"/>
		<path fill="#F8EBFF" d="M51.37,35.949h0.352v0.352H51.37V35.949z"/>
		<path fill="#F8EBFF" d="M51.719,35.597h0.352v0.352h-0.352V35.597z"/>
		<path fill="#F8EBFF" d="M51.37,35.247h0.352v0.352H51.37V35.247z"/>
		<path fill="#F8EBFF" d="M51.719,34.895h0.352v0.352h-0.352V34.895z"/>
		<path fill="#F8EBFF" d="M51.37,34.546h0.352v0.352H51.37V34.546z"/>
		<path fill="#F8EBFF" d="M48.913,39.107h0.352v0.352h-0.352V39.107z"/>
		<path fill="#F8EBFF" d="M50.666,35.247h0.352v0.352h-0.352V35.247z"/>
		<path fill="#F8EBFF" d="M51.018,34.895h0.352v0.352h-0.352V34.895z"/>
		<path fill="#F8EBFF" d="M50.666,34.546h0.352v0.352h-0.352V34.546z"/>
		<path fill="#F8EBFF" d="M48.561,38.755h0.352v0.352h-0.352V38.755z"/>
		<path fill="#F8EBFF" d="M48.913,38.405h0.352v0.352h-0.352V38.405z"/>
		<path fill="#F8EBFF" d="M48.561,34.895h0.352v0.352h-0.352V34.895z"/>
		<path fill="#F8EBFF" d="M48.913,34.546h0.352v0.352h-0.352V34.546z"/>
		<path fill="#F8EBFF" d="M48.212,39.107h0.352v0.352h-0.352V39.107z"/>
		<path fill="#F8EBFF" d="M47.86,38.755h0.352v0.352H47.86V38.755z"/>
		<path fill="#F8EBFF" d="M48.212,38.405h0.352v0.352h-0.352V38.405z"/>
		<path fill="#F8EBFF" d="M47.86,38.053h0.352v0.352H47.86V38.053z"/>
		<path fill="#F8EBFF" d="M48.212,37.704h0.352v0.352h-0.352V37.704z"/>
		<path fill="#F8EBFF" d="M47.86,35.597h0.352v0.352H47.86V35.597z"/>
		<path fill="#F8EBFF" d="M47.86,34.895h0.352v0.352H47.86V34.895z"/>
		<path fill="#F8EBFF" d="M48.212,34.546h0.352v0.352h-0.352V34.546z"/>
		<path fill="#F8EBFF" d="M47.51,34.546h0.352v0.352H47.51V34.546z"/>
		<path fill="#F8EBFF" d="M47.51,39.107h0.352v0.352H47.51V39.107z"/>
		<path fill="#F8EBFF" d="M47.51,38.405h0.352v0.352H47.51V38.405z"/>
		<path fill="#F8EBFF" d="M47.51,37.704h0.352v0.352H47.51V37.704z"/>
		<path fill="#F8EBFF" d="M47.51,35.949h0.352v0.352H47.51V35.949z"/>
		<path fill="#F8EBFF" d="M47.51,35.247h0.352v0.352H47.51V35.247z"/>
	</g>
</g>
</svg>
