<?xml version="1.0" encoding="UTF-8"?>
<svg id="Layer_1" data-name="Layer 1" xmlns="http://www.w3.org/2000/svg" width="4.6cm" height="5.3cm" version="1.1" viewBox="0 0 129 150">
  <defs>
    <style>
      .cls-1 {
        fill: #3cccff;
      }

      .cls-1, .cls-2, .cls-3, .cls-4, .cls-5 {
        stroke-width: 0px;
      }

      .cls-2 {
        fill: #f4efda;
      }

      .cls-3 {
        fill: #063575;
      }

      .cls-4 {
        fill: #8affff;
      }

      .cls-5 {
        fill: #2aa5ff;
      }
    </style>
  </defs>
  <path class="cls-3" d="M117.9,53.6v-10.7h-10.7v-10.7h-10.7v-10.7h-10.7v-10.7h-10.7V0h-21.4v10.7h-10.7v10.7h-10.7v10.7h-10.7v10.7h-10.7v10.7H0v42.9h10.7v10.7h10.7v10.7h10.7v10.7h10.7v10.7h10.7v10.7h21.4v-10.7h10.7v-10.7h10.7v-10.7h10.7v-10.7h10.7v-10.7h10.7v-42.9h-10.7Z"/>
  <path class="cls-4" d="M107.1,53.6v-10.7h-10.7v-10.7h-10.7v-10.7h-10.7v-10.7h-21.4v10.7h-10.7v10.7h-10.7v10.7h-10.7v10.7h-10.7v42.9h10.7v10.7h10.7v10.7h10.7v10.7h10.7v10.7h21.4v-10.7h10.7v-10.7h10.7v-10.7h10.7v-10.7h10.7v-42.9h-10.7Z"/>
  <path class="cls-2" d="M53.6,117.9h10.7v10.7h-10.7v-10.7Z"/>
  <path class="cls-2" d="M75,107.1h-10.7v10.7h21.4v-10.7h-10.7ZM53.6,85.7h10.7v10.7h-10.7v-10.7ZM42.9,96.4h10.7v10.7h-10.7v-10.7ZM42.9,21.4h10.7v10.7h-10.7v-10.7ZM53.6,10.7h10.7v10.7h-10.7v-10.7ZM64.3,32.1h10.7v10.7h-10.7v-10.7Z"/>
  <path class="cls-1" d="M85.7,107.1h10.7v10.7h-10.7v-10.7Z"/>
  <path class="cls-1" d="M96.4,96.4h10.7v10.7h-10.7v-10.7ZM107.1,85.7h10.7v10.7h-10.7v-10.7Z"/>
  <path class="cls-1" d="M64.3,117.9v21.4h10.7v-10.7h10.7v-10.7h-21.4ZM96.4,96.4v-10.7h-10.7v-10.7h-21.4v21.4h-10.7v10.7h32.1v-10.7h10.7ZM42.9,117.9v10.7h10.7v-21.4h-10.7v10.7Z"/>
  <path class="cls-1" d="M32.1,96.4h10.7v10.7h-10.7v-10.7ZM32.1,75v10.7h21.4v-10.7h10.7v-10.7h10.7v-10.7h-10.7V21.4h-10.7v10.7h-10.7v10.7h-10.7v10.7h-10.7v10.7h10.7v10.7Z"/>
  <path class="cls-1" d="M21.4,85.7h10.7v10.7h-10.7v-10.7Z"/>
  <path class="cls-1" d="M21.4,64.3h-10.7v21.4h10.7v-21.4ZM117.9,75v-10.7h-10.7v-10.7h-10.7v-21.4h-10.7v-10.7h-10.7v32.1h10.7v21.4h10.7v10.7h10.7v-10.7h10.7ZM64.3,10.7h10.7v10.7h-10.7v-10.7Z"/>
  <path class="cls-5" d="M64.3,128.6h10.7v10.7h-10.7v-10.7ZM75,117.9h10.7v10.7h-10.7v-10.7ZM85.7,107.1h10.7v10.7h-10.7v-10.7Z"/>
  <path class="cls-5" d="M96.4,96.4h10.7v10.7h-10.7v-10.7ZM107.1,85.7h10.7v10.7h-10.7v-10.7ZM75,85.7h-10.7v21.4h10.7v-10.7h10.7v-21.4h-10.7v10.7ZM64.3,42.9v-21.4h-10.7v10.7h-10.7v10.7h21.4ZM42.9,107.1h10.7v10.7h-10.7v-10.7Z"/>
  <path class="cls-5" d="M32.1,96.4h10.7v10.7h-10.7v-10.7ZM42.9,42.9h-10.7v10.7h-10.7v10.7h10.7v21.4h21.4v-21.4h-10.7v-21.4Z"/>
  <path class="cls-5" d="M21.4,85.7h10.7v10.7h-10.7v-10.7ZM85.7,32.1v-10.7h-10.7v32.1h10.7v-21.4Z"/>
  <path class="cls-5" d="M117.9,75v-10.7h-21.4v-10.7h-10.7v21.4h10.7v10.7h10.7v-10.7h10.7Z"/>
</svg>