<?xml version="1.0" encoding="UTF-8"?>
<svg id="Layer_1" data-name="Layer 1" xmlns="http://www.w3.org/2000/svg" width="4.6cm" height="5.3cm" version="1.1" viewBox="0 0 129 150">
  <defs>
    <style>
      .cls-1 {
        fill: #285145;
      }

      .cls-1, .cls-2, .cls-3, .cls-4, .cls-5, .cls-6, .cls-7 {
        stroke-width: 0px;
      }

      .cls-2 {
        fill: #53bc34;
      }

      .cls-3 {
        fill: #696884;
      }

      .cls-4 {
        fill: #8e8daa;
      }

      .cls-5 {
        fill: #bfbdd4;
      }

      .cls-6 {
        fill: #298356;
      }

      .cls-7 {
        fill: #14280f;
      }
    </style>
  </defs>
  <path class="cls-7" d="M117.9,53.6v-10.7h-10.7v-10.7h-10.7v-10.7h-10.7v-10.7h-10.7V0h-21.4v10.7h-10.7v10.7h-10.7v10.7h-10.7v10.7h-10.7v10.7H0v42.9h10.7v10.7h10.7v10.7h10.7v10.7h10.7v10.7h10.7v10.7h21.4v-10.7h10.7v-10.7h10.7v-10.7h10.7v-10.7h10.7v-10.7h10.7v-42.9h-10.7Z"/>
  <path class="cls-1" d="M107.1,53.6v-10.7h-10.7v-10.7h-10.7v-10.7h-10.7v-10.7h-21.4v10.7h-10.7v10.7h-10.7v10.7h-10.7v10.7h-10.7v42.9h10.7v10.7h10.7v10.7h10.7v10.7h10.7v10.7h21.4v-10.7h10.7v-10.7h10.7v-10.7h10.7v-10.7h10.7v-42.9h-10.7Z"/>
  <path class="cls-6" d="M117.9,64.3v-10.7h-10.7v-10.7h-21.4v-10.7h-10.7V10.7h-21.4v21.4h-10.7v10.7h10.7v10.7h10.7v21.4h-10.7v-21.4h-10.7v-10.7h-21.4v10.7h10.7v21.4h10.7v10.7h-10.7v-10.7h-10.7v-21.4h-10.7v42.9h10.7v10.7h10.7v10.7h10.7v10.7h10.7v10.7h21.4v-10.7h10.7v-10.7h10.7v-10.7h10.7v-10.7h10.7v-21.4h-10.7v-10.7h10.7ZM85.7,96.4v10.7h-10.7v10.7h-10.7v-10.7h10.7v-10.7h-10.7v-10.7h10.7v10.7h10.7v-10.7h10.7v10.7h-10.7ZM96.4,75h-10.7v-21.4h10.7v21.4Z"/>
  <path class="cls-2" d="M75,85.7h10.7v10.7h-10.7v-10.7ZM85.7,75h10.7v10.7h-10.7v-10.7ZM53.6,75h-10.7v21.4h10.7v10.7h10.7v-21.4h-10.7v-10.7ZM53.6,64.3v-10.7h-10.7v-10.7h-10.7v32.1h10.7v-10.7h10.7Z"/>
  <path class="cls-2" d="M10.7,53.6h10.7v10.7h-10.7v-10.7ZM64.3,42.9h10.7v-21.4h-10.7v-10.7h-10.7v21.4h10.7v10.7ZM85.7,53.6h-10.7v10.7h-10.7v10.7h21.4v-21.4ZM96.4,53.6v21.4h10.7v-21.4h-10.7Z"/>
  <path class="cls-4" d="M107.1,75v10.7h-10.7v10.7h-10.7v10.7h-10.7v10.7h-21.4v-10.7h-10.7v-10.7h-10.7v-10.7h-10.7v-10.7h-10.7v21.4h10.7v10.7h10.7v10.7h10.7v10.7h10.7v10.7h21.4v-10.7h10.7v-10.7h10.7v-10.7h10.7v-10.7h10.7v-21.4h-10.7Z"/>
  <path class="cls-3" d="M64.3,128.6h10.7v10.7h-10.7v-10.7ZM75,117.9h10.7v10.7h-10.7v-10.7ZM85.7,107.1h10.7v10.7h-10.7v-10.7Z"/>
  <path class="cls-3" d="M96.4,96.4h10.7v10.7h-10.7v-10.7ZM107.1,85.7h10.7v10.7h-10.7v-10.7Z"/>
  <path class="cls-5" d="M53.6,117.9h10.7v10.7h-10.7v-10.7ZM42.9,107.1h10.7v10.7h-10.7v-10.7Z"/>
  <path class="cls-5" d="M32.1,96.4h10.7v10.7h-10.7v-10.7ZM21.4,85.7h10.7v10.7h-10.7v-10.7ZM10.7,75h10.7v10.7h-10.7v-10.7Z"/>
</svg>