<?xml version="1.0" encoding="UTF-8"?>
<svg id="Layer_1" data-name="Layer 1" xmlns="http://www.w3.org/2000/svg" width="66.1cm" height="66.1cm" version="1.1" viewBox="0 0 1873 1873">
  <defs>
    <style>
      .cls-1 {
        fill: #8f17f9;
      }

      .cls-1, .cls-2, .cls-3, .cls-4, .cls-5, .cls-6 {
        stroke-width: 0px;
      }

      .cls-2 {
        fill: #ac15f9;
      }

      .cls-3 {
        fill: #fa34f3;
      }

      .cls-4 {
        fill: #cf15f9;
      }

      .cls-5 {
        fill: #7e18f8;
      }

      .cls-6 {
        fill: #fff;
      }
    </style>
  </defs>
  <path class="cls-3" d="M1824.5,576.3h-48.1v-192.2h-96v-96h-96v-96h-96v-96h-192V0h-720.1v96h-192v96h-96v96h-96v96h-96.2v192.2H0v169.1h1872.4v-169.1h-47.9Z"/>
  <path class="cls-4" d="M1824.5,720.2H0v396.5h1872.4v-396.5h-47.9Z"/>
  <path class="cls-2" d="M1824.5,1008.3H0v288h96v44.5h1680.4v-44.5h96v-288h-47.9Z"/>
  <path class="cls-1" d="M1728.5,1296.3H96v192h96.2v96h96l1.6,62.2h1294.5v-62.2h96v-96h96v-192h-47.9Z"/>
  <path class="cls-5" d="M912.2,1872.4h-336v-96h-192v-96h-96v-96h1296.2v96h-96v96h-192v96h-384.1Z"/>
  <path class="cls-6" d="M1215.1,1083.8v33h66.1v-99h-66.1v66.1Z"/>
  <path class="cls-6" d="M1149.1,1116.7h-165.2v66.2h132.1v66.1h66.1v-66.1h33.1v-66.2h-66.1Z"/>
  <path class="cls-6" d="M1049.9,1017.7h165.2v-66.2h-165.2v66.2Z"/>
  <path class="cls-6" d="M983.8,852.3v99.2h66.1v-99.2h-66.1Z"/>
  <path class="cls-6" d="M1215.1,786.3h-33.1v-66.1h-66.1v66.1h-66.1v66.1h231.3v-66.1h-66.1Z"/>
  <path class="cls-6" d="M1644.7,786.3h-297.3v66.1h132.1v330.6h66.1v-330.6h132.3v-66.1h-33.1Z"/>
  <path class="cls-6" d="M851.6,786.3v165.2h-165.2v-165.2h-66.1v396.7h66.1v-165.2h165.2v165.2h66.1v-396.7h-66.1Z"/>
  <path class="cls-6" d="M488,786.3h-198.2v66.1h264.4v-66.1h-66.2Z"/>
  <path class="cls-6" d="M554.2,1116.7v-165.2h-198.3v66.2h132.1v99h66.2Z"/>
  <path class="cls-6" d="M289.9,1182.9h198.2v-66.2h-198.2v66.2Z"/>
  <path class="cls-6" d="M223.6,852.3v264.4h66.2v-264.4h-66.2Z"/>
</svg>