<?xml version="1.0" encoding="UTF-8"?>
<svg id="Layer_1" data-name="Layer 1" xmlns="http://www.w3.org/2000/svg" width="4.6cm" height="5.3cm" version="1.1" viewBox="0 0 129 150">
  <defs>
    <style>
      .cls-1 {
        fill: #8f17f9;
      }

      .cls-1, .cls-2, .cls-3, .cls-4, .cls-5, .cls-6, .cls-7, .cls-8, .cls-9 {
        stroke-width: 0px;
      }

      .cls-2 {
        fill: #200449;
      }

      .cls-3 {
        fill: #ac15f9;
      }

      .cls-4 {
        fill: #fa34f3;
      }

      .cls-5 {
        fill: #45116b;
      }

      .cls-6 {
        fill: #cf15f9;
      }

      .cls-7 {
        fill: #39006a;
      }

      .cls-8 {
        fill: #12032e;
      }

      .cls-9 {
        fill: #501e80;
      }
    </style>
  </defs>
  <path class="cls-8" d="M117.9,53.6v-10.7h-10.7v-10.7h-10.7v-10.7h-10.7v-10.7h-10.7V0h-21.4v10.7h-10.7v10.7h-10.7v10.7h-10.7v10.7h-10.7v10.7H0v42.9h10.7v10.7h10.7v10.7h10.7v10.7h10.7v10.7h10.7v10.7h21.4v-10.7h10.7v-10.7h10.7v-10.7h10.7v-10.7h10.7v-10.7h10.7v-42.9h-10.7Z"/>
  <path class="cls-9" d="M107.1,53.6v-10.7h-10.7v-10.7h-10.7v-10.7h-10.7v-10.7h-21.4v10.7h-10.7v10.7h-10.7v10.7h-10.7v10.7h-10.7v42.9h10.7v10.7h10.7v10.7h10.7v10.7h10.7v10.7h21.4v-10.7h10.7v-10.7h10.7v-10.7h10.7v-10.7h10.7v-42.9h-10.7Z"/>
  <path class="cls-7" d="M107.1,53.6v-10.7h-10.7v-10.7h-10.7v10.7h-21.4v10.7h-10.7v-10.7h10.7v-10.7h21.4v-10.7h-21.4v-10.7h-10.7v10.7h-10.7v10.7h-10.7v10.7h-10.7v32.1h-10.7v21.4h10.7v10.7h10.7v10.7h10.7v10.7h10.7v10.7h21.4v-10.7h10.7v-10.7h10.7v-10.7h10.7v-10.7h10.7v-42.9h-10.7Z"/>
  <path class="cls-4" d="M64.3,128.6h10.7v10.7h-10.7v-10.7ZM64.3,75h-10.7v10.7h21.4v-10.7h-10.7ZM21.4,64.3v10.7h10.7v-21.4h-10.7v10.7ZM42.9,21.4h10.7v10.7h-10.7v-10.7Z"/>
  <path class="cls-6" d="M64.3,85.7h10.7v10.7h-10.7v-10.7ZM53.6,64.3h10.7v10.7h-10.7v-10.7ZM32.1,32.1h10.7v10.7h-10.7v-10.7ZM53.6,10.7h10.7v10.7h-10.7v-10.7Z"/>
  <path class="cls-5" d="M53.6,96.4v10.7h10.7v-21.4h-10.7v10.7ZM64.3,42.9v-21.4h-10.7v10.7h-10.7v10.7h21.4ZM42.9,75h10.7v10.7h-10.7v-10.7ZM64.3,53.6h-10.7v10.7h10.7v10.7h10.7v-21.4h-10.7Z"/>
  <path class="cls-1" d="M75,117.9v10.7h10.7v-21.4h-10.7v10.7ZM85.7,75h10.7v10.7h-10.7v-10.7ZM21.4,75h10.7v10.7h-10.7v-10.7ZM64.3,21.4h10.7v10.7h-10.7v-10.7Z"/>
  <path class="cls-1" d="M96.4,64.3h10.7v10.7h-10.7v-10.7Z"/>
  <path class="cls-3" d="M75,85.7v21.4h10.7v-10.7h10.7v-10.7h-21.4ZM96.4,75h10.7v10.7h-10.7v-10.7ZM32.1,64.3v10.7h21.4v-10.7h-21.4ZM10.7,75h10.7v10.7h-10.7v-10.7Z"/>
  <path class="cls-3" d="M21.4,42.9h10.7v10.7h-10.7v-10.7ZM107.1,53.6v21.4h10.7v-21.4h-10.7ZM75,21.4h10.7v10.7h-10.7v-10.7Z"/>
  <path class="cls-2" d="M53.6,128.6h10.7v10.7h-10.7v-10.7ZM96.4,96.4h10.7v10.7h-10.7v-10.7Z"/>
  <path class="cls-2" d="M107.1,85.7h10.7v10.7h-10.7v-10.7ZM64.3,107.1v21.4h10.7v-32.1h-10.7v10.7ZM42.9,85.7h10.7v10.7h-10.7v-10.7ZM42.9,96.4h-10.7v21.4h10.7v-21.4Z"/>
  <path class="cls-2" d="M85.7,64.3h10.7v10.7h-10.7v-10.7ZM96.4,53.6h10.7v10.7h-10.7v-10.7ZM42.9,117.9h10.7v10.7h-10.7v-10.7Z"/>
  <path class="cls-7" d="M85.7,107.1v10.7h10.7v-21.4h-10.7v10.7Z"/>
  <path class="cls-7" d="M96.4,85.7h10.7v10.7h-10.7v-10.7Z"/>
  <path class="cls-7" d="M107.1,75h10.7v10.7h-10.7v-10.7ZM32.1,85.7H10.7v10.7h10.7v10.7h10.7v-10.7h10.7v-21.4h-10.7v10.7ZM32.1,42.9v21.4h10.7v-10.7h10.7v-10.7h-21.4ZM85.7,64.3h10.7v-10.7h-10.7v-10.7h-21.4v10.7h10.7v10.7h10.7Z"/>
</svg>