<?xml version="1.0" encoding="UTF-8"?>
<svg id="Layer_1" data-name="Layer 1" xmlns="http://www.w3.org/2000/svg" width="1.4cm" height="1.8cm" version="1.1" viewBox="0 0 40 52">
  <defs>
    <style>
      .cls-1 {
        fill: #ffbdd4;
      }

      .cls-1, .cls-2, .cls-3, .cls-4, .cls-5, .cls-6, .cls-7, .cls-8, .cls-9, .cls-10, .cls-11, .cls-12 {
        stroke-width: 0px;
      }

      .cls-2 {
        fill: aqua;
      }

      .cls-3 {
        fill: #ff74a4;
      }

      .cls-4 {
        fill: #a0ffff;
      }

      .cls-5 {
        fill: #ff216e;
      }

      .cls-6 {
        fill: #ff4988;
      }

      .cls-7 {
        fill: #000;
      }

      .cls-8 {
        fill: #e1e1e1;
      }

      .cls-9 {
        fill: #d2ffff;
      }

      .cls-10 {
        fill: #005f5f;
      }

      .cls-11 {
        fill: #ffd9e6;
      }

      .cls-12 {
        fill: #fff;
      }
    </style>
  </defs>
  <g>
    <path class="cls-7" d="M4,30v-2h32v14h2v-14h2v-10h-2v-10h-2v6H4v-6h-2v10H0v10h2v14h2v-12ZM4,16h32v2H4v-2ZM2,22v-2h36v6H2v-4Z"/>
    <polygon class="cls-7" points="28 40 28 42 31.5 42 32 42 32 40 28 40"/>
    <rect class="cls-7" x="6" y="4" width="2" height="2"/>
    <rect class="cls-7" x="4" y="6" width="2" height="2"/>
    <polygon class="cls-7" points="26 2 28 2 28 0 12 0 12 2 14 2 26 2"/>
    <polygon class="cls-7" points="12 4 12 2 8 2 8 4 10 4 12 4"/>
    <rect class="cls-7" x="32" y="4" width="2" height="2"/>
    <rect class="cls-7" x="8" y="40" width="4" height="2"/>
    <rect class="cls-7" x="34" y="6" width="2" height="2"/>
    <polygon class="cls-7" points="30 4 32 4 32 2 28 2 28 4 30 4"/>
    <polygon class="cls-4" points="34 28 6 28 6 42 8 42 8 40 12 40 12 32 10 32 10 30 12 30 12 32 24 32 28 32 28 30 30 30 30 32 28 32 28 40 32 40 32 42 34 42 34 28"/>
    <polygon class="cls-4" points="8 18 34 18 34 16 6 16 6 18 8 18"/>
    <rect class="cls-9" x="34" y="16" width="2" height="2"/>
    <polygon class="cls-9" points="6 28 4 28 4 30 4 42 6 42 6 28"/>
    <rect class="cls-9" x="4" y="16" width="2" height="2"/>
    <rect class="cls-9" x="34" y="28" width="2" height="14"/>
    <rect class="cls-10" x="15" y="20" width="2" height="6"/>
    <polygon class="cls-10" points="25 26 25 22 25 20 23 20 23 26 25 26"/>
    <rect class="cls-10" x="19" y="22" width="2" height="2"/>
    <rect class="cls-10" x="3" y="20" width="2" height="6"/>
    <rect class="cls-10" x="27" y="20" width="2" height="6"/>
    <polygon class="cls-10" points="13 26 13 22 13 20 11 20 11 26 13 26"/>
    <rect class="cls-10" x="7" y="22" width="2" height="2"/>
    <rect class="cls-10" x="35" y="20" width="2" height="6"/>
    <rect class="cls-10" x="31" y="22" width="2" height="2"/>
    <polygon class="cls-12" points="22 10 22 8 22 6 24 6 24 4 26 4 26 2 14 2 14 4 16 4 16 6 18 6 18 8 18 10 18 12 18 14 22 14 22 12 22 10"/>
    <polygon class="cls-12" points="12 10 12 8 10 8 10 6 8 6 8 8 8 10 10 10 10 12 10 14 12 14 12 12 12 10"/>
    <polygon class="cls-12" points="16 10 16 8 16 6 14 6 14 4 12 4 10 4 10 6 12 6 12 8 14 8 14 10 14 12 14 14 16 14 16 12 16 10"/>
    <polygon class="cls-12" points="30 10 32 10 32 8 32 6 30 6 30 8 28 8 28 10 28 12 28 14 30 14 30 12 30 10"/>
    <polygon class="cls-12" points="8 10 6 10 6 14 8 14 8 12 8 10"/>
    <polygon class="cls-12" points="32 10 32 12 32 14 34 14 34 10 32 10"/>
    <polygon class="cls-12" points="26 10 26 8 28 8 28 6 30 6 30 4 28 4 26 4 26 6 24 6 24 8 24 10 24 12 24 14 26 14 26 12 26 10"/>
    <polygon class="cls-8" points="4 14 6 14 6 10 6 8 4 8 4 10 4 14"/>
    <rect class="cls-8" x="6" y="6" width="2" height="2"/>
    <rect class="cls-8" x="8" y="4" width="2" height="2"/>
    <rect class="cls-8" x="30" y="4" width="2" height="2"/>
    <rect class="cls-8" x="26" y="2" width="2" height="2"/>
    <rect class="cls-8" x="12" y="2" width="2" height="2"/>
    <rect class="cls-8" x="32" y="6" width="2" height="2"/>
    <polygon class="cls-8" points="34 10 34 14 36 14 36 8 34 8 34 10"/>
    <rect class="cls-5" x="8" y="12" width="2" height="2"/>
    <rect class="cls-5" x="12" y="12" width="2" height="2"/>
    <rect class="cls-5" x="26" y="12" width="2" height="2"/>
    <rect class="cls-5" x="30" y="12" width="2" height="2"/>
    <rect class="cls-5" x="16" y="12" width="2" height="2"/>
    <rect class="cls-5" x="22" y="12" width="2" height="2"/>
    <rect class="cls-6" x="12" y="10" width="2" height="2"/>
    <rect class="cls-6" x="26" y="10" width="2" height="2"/>
    <rect class="cls-6" x="22" y="10" width="2" height="2"/>
    <rect class="cls-6" x="16" y="10" width="2" height="2"/>
    <rect class="cls-6" x="30" y="10" width="2" height="2"/>
    <rect class="cls-6" x="8" y="10" width="2" height="2"/>
    <rect class="cls-3" x="16" y="8" width="2" height="2"/>
    <rect class="cls-3" x="22" y="8" width="2" height="2"/>
    <rect class="cls-3" x="32" y="8" width="2" height="2"/>
    <rect class="cls-3" x="12" y="8" width="2" height="2"/>
    <rect class="cls-3" x="6" y="8" width="2" height="2"/>
    <rect class="cls-3" x="26" y="8" width="2" height="2"/>
    <rect class="cls-11" x="24" y="4" width="2" height="2"/>
    <rect class="cls-11" x="14" y="4" width="2" height="2"/>
    <rect class="cls-1" x="28" y="6" width="2" height="2"/>
    <rect class="cls-1" x="10" y="6" width="2" height="2"/>
    <rect class="cls-1" x="16" y="6" width="2" height="2"/>
    <rect class="cls-1" x="22" y="6" width="2" height="2"/>
    <path class="cls-9" d="M11,26v-6h-6v6h6ZM7,22h2v2h-2v-2Z"/>
    <path class="cls-9" d="M23,26v-6h-6v6h6ZM19,22h2v2h-2v-2Z"/>
    <path class="cls-9" d="M35,26v-6h-6v6h6ZM31,22h2v2h-2v-2Z"/>
    <polygon class="cls-2" points="25 26 27 26 27 20 25 20 25 22 25 26"/>
    <polygon class="cls-2" points="13 26 15 26 15 20 13 20 13 22 13 26"/>
    <rect class="cls-2" x="37" y="20" width="1" height="6"/>
    <polygon class="cls-2" points="3 20 2 20 2 22 2 26 3 26 3 20"/>
    <polygon class="cls-7" points="20 50 18 50 18 52 22 52 22 50 20 50"/>
    <rect class="cls-7" x="22" y="50" width="2" height="2"/>
    <rect class="cls-7" x="16" y="50" width="2" height="2"/>
    <polygon class="cls-7" points="14 46 14 44 14 42 12 42 12 48 14 48 14 46"/>
    <polygon class="cls-7" points="26 42 26 44 26 46 26 48 28 48 28 42 26 42"/>
    <polygon class="cls-7" points="14 42 14 34 16 34 18 34 20 34 22 34 24 34 26 34 26 42 28 42 28 40 28 32 24 32 12 32 12 40 12 42 14 42"/>
    <rect class="cls-7" x="14" y="48" width="2" height="2"/>
    <rect class="cls-7" x="24" y="48" width="2" height="2"/>
    <rect class="cls-7" x="10" y="30" width="2" height="2"/>
    <rect class="cls-7" x="28" y="30" width="2" height="2"/>
    <rect class="cls-1" x="16" y="48" width="2" height="2"/>
    <rect class="cls-1" x="14" y="34" width="2" height="8"/>
    <rect class="cls-1" x="14" y="44" width="2" height="2"/>
    <rect class="cls-1" x="14" y="46" width="2" height="2"/>
    <rect class="cls-1" x="14" y="42" width="2" height="2"/>
    <polygon class="cls-3" points="22 48 24 48 24 46 24 44 24 42 22 42 22 48"/>
    <polygon class="cls-3" points="16 44 16 46 16 48 18 48 18 42 16 42 16 44"/>
    <polygon class="cls-3" points="18 42 18 40 18 36 18 34 16 34 16 42 18 42"/>
    <polygon class="cls-3" points="22 42 24 42 24 34 22 34 22 40 22 42"/>
    <polygon class="cls-5" points="22 42 20 42 20 50 22 50 22 48 22 42"/>
    <rect class="cls-5" x="20" y="40" width="2" height="2"/>
    <rect class="cls-5" x="20" y="34" width="2" height="6"/>
    <polygon class="cls-6" points="18 42 18 48 18 50 20 50 20 42 18 42"/>
    <rect class="cls-6" x="18" y="40" width="2" height="2"/>
    <polygon class="cls-6" points="18 40 20 40 20 34 18 34 18 36 18 40"/>
    <rect class="cls-6" x="24" y="34" width="2" height="8"/>
    <rect class="cls-6" x="24" y="44" width="2" height="2"/>
    <rect class="cls-6" x="24" y="46" width="2" height="2"/>
    <rect class="cls-6" x="24" y="42" width="2" height="2"/>
    <rect class="cls-6" x="22" y="48" width="2" height="2"/>
  </g>
  <rect class="cls-7" x="28" y="40" width="10" height="2"/>
  <rect class="cls-7" x="2" y="40" width="10" height="2"/>
</svg>