<?xml version="1.0" encoding="UTF-8"?>
<svg id="Layer_1" data-name="Layer 1" xmlns="http://www.w3.org/2000/svg" width="4.6cm" height="6.1cm" version="1.1" viewBox="0 0 129 172">
  <defs>
    <style>
      .cls-1 {
        fill: #f5f5f5;
      }

      .cls-1, .cls-2, .cls-3, .cls-4, .cls-5, .cls-6 {
        stroke-width: 0px;
      }

      .cls-2 {
        fill: #dcdcdc;
      }

      .cls-3 {
        fill: #b9b9b9;
      }

      .cls-4 {
        fill: #000;
      }

      .cls-5 {
        fill: #339cf0;
      }

      .cls-6 {
        fill: #fff;
      }
    </style>
  </defs>
  <path class="cls-5" d="M117.9,53.6v-10.7h-10.7v-10.7h-10.7v-10.7h-10.7v-10.7h-10.7V0h-21.4v10.7h-10.7v10.7h-10.7v10.7h-10.7v10.7h-10.7v10.7H0v64.3h10.7v10.7h10.7v10.7h10.7v10.7h10.7v10.7h10.7v10.7h21.4v-10.7h10.7v-10.7h10.7v-10.7h10.7v-10.7h10.7v-10.7h10.7V53.6h-10.7Z"/>
  <path class="cls-2" d="M53.6,117.9v-10.7h-10.7v21.4h-10.7v10.7h10.7v10.7h10.7v10.7h10.7v-42.9h-10.7Z"/>
  <path class="cls-2" d="M32.1,96.4h10.7v10.7h-10.7v-10.7ZM21.4,117.9h10.7v10.7h-10.7v-10.7Z"/>
  <path class="cls-2" d="M21.4,96.4h10.7v-10.7h-10.7v-10.7h-10.7v42.9h10.7v-21.4Z"/>
  <path class="cls-1" d="M107.2,75v10.7h-10.7v10.7h10.7v21.4h10.7v-42.9h-10.7Z"/>
  <path class="cls-1" d="M85.7,96.4h10.7v10.7h-10.7v-10.7ZM96.4,117.9h10.7v10.7h-10.7v-10.7Z"/>
  <path class="cls-1" d="M85.7,107.2h-10.7v10.7h-10.7v42.9h10.7v-10.7h10.7v-10.7h10.7v-10.7h-10.7v-21.4Z"/>
  <path class="cls-3" d="M107.2,64.3h10.7v10.7h-10.7v-10.7Z"/>
  <path class="cls-3" d="M96.4,75h10.7v10.7h-10.7v-10.7Z"/>
  <path class="cls-3" d="M85.7,85.7h10.7v10.7h-10.7v-10.7ZM32.1,85.7h10.7v10.7h-10.7v-10.7Z"/>
  <path class="cls-3" d="M42.9,96.4h10.7v10.7h-10.7v-10.7Z"/>
  <path class="cls-3" d="M53.6,107.2v10.7h21.4v-10.7h-21.4ZM21.4,75h10.7v10.7h-10.7v-10.7Z"/>
  <path class="cls-3" d="M10.7,64.3h10.7v10.7h-10.7v-10.7ZM75,96.4h10.7v10.7h-10.7v-10.7Z"/>
  <path class="cls-6" d="M107.2,53.6v-10.7h-10.7v-10.7h-10.7v-10.7h-10.7v-10.7h-21.4v10.7h-10.7v10.7h-10.7v10.7h-10.7v10.7h-10.7v10.7h10.7v10.7h10.7v10.7h10.7v10.7h10.7v10.7h21.4v-10.7h10.7v-10.7h10.7v-10.7h10.7v-10.7h10.7v-10.7h-10.7Z"/>
  <path class="cls-4" d="M64.3,75h-10.7v10.7h10.7v-10.7Z"/>
  <path class="cls-4" d="M42.9,53.6h-10.7v10.7h10.7v-10.7Z"/>
  <path class="cls-4" d="M53.6,64.3h-10.7v10.7h10.7v-10.7Z"/>
  <path class="cls-4" d="M64.3,32.1h-10.7v10.7h10.7v-10.7Z"/>
  <path class="cls-4" d="M53.6,42.9h-10.7v10.7h10.7v-10.7Z"/>
</svg>