<?xml version="1.0" encoding="UTF-8"?>
<svg id="Layer_1" data-name="Layer 1" xmlns="http://www.w3.org/2000/svg" width="5.3cm" height="4.1cm" version="1.1" viewBox="0 0 150 116">
  <defs>
    <style>
      .cls-1 {
        fill: aqua;
      }

      .cls-1, .cls-2, .cls-3, .cls-4 {
        stroke-width: 0px;
      }

      .cls-2 {
        fill: #46a7c0;
      }

      .cls-3 {
        fill: #000;
      }

      .cls-4 {
        fill: #fff;
      }
    </style>
  </defs>
  <path class="cls-3" d="M138.5,23.1v-11.5h-11.5V0H23.1v11.5h-11.5v11.5H0v23.1h11.5v11.5h11.5v11.5h11.5v11.5h11.5v11.5h11.5v11.5h11.5v11.5h11.5v-11.5h11.5v-11.5h11.5v-11.5h11.5v-11.5h11.5v-11.5h11.5v-11.5h11.5v-23.1h-11.5Z"/>
  <path class="cls-2" d="M23.1,46.2v11.5h11.5v11.5h11.5v11.5h11.5v11.5h11.5v11.5h11.5v-11.5h11.5v-11.5h11.5v-11.5h11.5v-11.5h11.5v-11.5H23.1Z"/>
  <path class="cls-1" d="M103.8,23.1h-11.5v-11.5h-34.6v11.5h-11.5v11.5h-11.5v23.1h11.5v11.5h11.5v11.5h11.5v11.5h11.5v-11.5h11.5v-11.5h11.5v-11.5h11.5v-23.1h-11.5v-11.5Z"/>
  <path class="cls-1" d="M138.5,23.1h-11.5v11.5h11.5v-11.5Z"/>
  <path class="cls-1" d="M126.9,11.5h-11.5v11.5h11.5v-11.5Z"/>
  <path class="cls-1" d="M34.6,11.5h-11.5v11.5h11.5v-11.5Z"/>
  <path class="cls-1" d="M23.1,23.1h-11.5v11.5h11.5v-11.5Z"/>
  <path class="cls-4" d="M126.9,34.6h11.5v11.5h-11.5v-11.5ZM11.5,34.6h11.5v11.5h-11.5v-11.5ZM103.8,11.5h11.5v11.5h-11.5v-11.5ZM92.3,34.6v-11.5h-11.5v-11.5h-11.5v11.5h-11.5v11.5h-23.1v11.5h80.8v-11.5h-23.1Z"/>
  <path class="cls-4" d="M115.4,23.1h11.5v11.5h-11.5v-11.5ZM23.1,23.1h11.5v11.5h-11.5v-11.5Z"/>
  <path class="cls-4" d="M34.6,11.5h11.5v11.5h-11.5v-11.5Z"/>
</svg>