<?xml version="1.0" encoding="UTF-8"?>
<svg id="Layer_1" data-name="Layer 1" xmlns="http://www.w3.org/2000/svg" width=".3cm" height=".4cm" version="1.1" viewBox="0 0 8 10">
  <defs>
    <style>
      .cls-1 {
        fill: #dea8ff;
      }

      .cls-1, .cls-2, .cls-3, .cls-4 {
        stroke-width: 0px;
      }

      .cls-2 {
        fill: #c260ff;
      }

      .cls-3 {
        fill: #edd3fd;
      }

      .cls-4 {
        fill: #64438e;
      }
    </style>
  </defs>
  <path class="cls-4" d="M7,3v-1h-1v-1h-1V0h-2v1h-1v1h-1v1H0v4h1v1h1v1h1v1h2v-1h1v-1h1v-1h1V3h-1Z"/>
  <path class="cls-1" d="M1,5v2h1v1h1v1h1v-4H1Z"/>
  <path class="cls-1" d="M6,3v-1h-1v-1h-1v4h3v-2h-1Z"/>
  <path class="cls-2" d="M4,5v4h1v-1h1v-1h1v-2h-3Z"/>
  <path class="cls-3" d="M3,1v1h-1v1h-1v2h3V1h-1Z"/>
</svg>